<?xml version="1.0" encoding="UTF-8"?>
<svg width="31px" height="31px" viewBox="0 0 31 31" version="1.1" xmlns="http://www.w3.org/2000/svg" xmlns:xlink="http://www.w3.org/1999/xlink">
    <!-- Generator: Sketch 45 (43475) - http://www.bohemiancoding.com/sketch -->
    <title>analitycs</title>
    <desc>Created with Sketch.</desc>
    <defs></defs>
    <g id="Page-1" stroke="none" stroke-width="1" fill="none" fill-rule="evenodd">
        <g id="upload-files" transform="translate(-36.000000, -769.000000)">
            <g id="nav-bar">
                <g id="analitycs" transform="translate(36.000000, 768.000000)">
                    <g id="analytics" transform="translate(0.000000, 1.000000)" fill-rule="nonzero" fill="#000000">
                        <path d="M29.9738235,28.6643529 L28.6643529,29.9738235 C28.5684118,30.0696471 28.4427059,30.1176471 28.3170588,30.1176471 C28.1914118,30.1176471 28.0657059,30.0697059 27.9697647,29.9738235 C27.778,29.7820588 27.778,29.4711176 27.9697647,29.2794118 L28.441,28.8081765 L3.10994118,28.8081765 C2.11717647,28.8081765 1.30941176,28.0004706 1.30941176,27.0076471 L1.30941176,1.67652941 L0.838294118,2.14776471 C0.646470588,2.33952941 0.335588235,2.33952941 0.143823529,2.14776471 C-0.0479411765,1.956 -0.0479411765,1.64505882 0.143823529,1.45335294 L1.45329412,0.143823529 C1.64511765,-0.0479411765 1.956,-0.0479411765 2.14776471,0.143823529 L3.45723529,1.45329412 C3.649,1.64505882 3.649,1.956 3.45723529,2.14770588 C3.36129412,2.24352941 3.23558824,2.29152941 3.10994118,2.29152941 C2.98429412,2.29152941 2.85858824,2.24358824 2.76264706,2.14770588 L2.29152941,1.67647059 L2.29152941,27.0076471 C2.29152941,27.4589412 2.65864706,27.8260588 3.10994118,27.8260588 L28.4410588,27.8260588 L27.9698235,27.3548235 C27.7780588,27.1630588 27.7780588,26.8521176 27.9698235,26.6604118 C28.1616471,26.4686471 28.4725294,26.4686471 28.6642941,26.6604118 L29.9737647,27.9698824 C30.1655882,28.1616471 30.1655882,28.4726471 29.9738235,28.6643529 Z" id="Shape"></path>
                        <path d="M29.9738162,9.96672571 L28.6643456,11.2761963 C28.5684044,11.3720198 28.4426985,11.419961 28.3170515,11.419961 C28.1914044,11.419961 28.0656985,11.3720198 27.9697574,11.2761963 C27.7779926,11.0843728 27.7779926,10.7734904 27.9697574,10.5817257 L28.4409926,10.1106081 L21.254875,10.1106081 L15.4979926,21.6243139 C15.4361691,21.7480786 15.3249338,21.8399022 15.1917574,21.8773728 C15.1481103,21.8896669 15.1032868,21.8957257 15.0587574,21.8957257 C14.9675809,21.8957257 14.8773456,21.8703139 14.7985221,21.8210786 L9.68005147,18.6220786 L3.76469853,18.6220786 C3.49346324,18.6220786 3.27363971,18.4023139 3.27363971,18.1310198 C3.27363971,17.8597257 3.49346324,17.6399022 3.76469853,17.6399022 L9.82099265,17.6399022 C9.91299265,17.6399022 10.0032279,17.6657845 10.0812279,17.7145492 L14.8611691,20.7020198 L20.5122868,9.39984335 C20.5955221,9.23354924 20.7654632,9.12837276 20.9514632,9.12837276 L28.4411103,9.12837276 L27.969875,8.65725512 C27.7781103,8.46543159 27.7781103,8.15454924 27.969875,7.96278453 C28.1616985,7.77107865 28.4725809,7.77107865 28.6643456,7.96278453 L29.9738162,9.27225512 C30.1655809,9.46401982 30.1655809,9.77490218 29.9738162,9.96672571 Z" id="Shape" transform="translate(16.695640, 14.857365) rotate(-34.000000) translate(-16.695640, -14.857365) "></path>
                        <path d="M11.8093436,18.6567008 C11.8093436,19.3799361 11.2231083,19.9661714 10.499873,19.9661714 C9.77663771,19.9661714 9.19040241,19.3799361 9.19040241,18.6567008 C9.19040241,17.9334655 9.77663771,17.3472302 10.499873,17.3472302 C11.2231083,17.3472302 11.8093436,17.9334655 11.8093436,18.6567008 Z M15.7377554,20.6208772 C15.0145201,20.6208772 14.4282848,21.2071125 14.4282848,21.9303478 C14.4282848,22.6535831 15.0145201,23.2398184 15.7377554,23.2398184 C16.4609906,23.2398184 17.0472259,22.6535831 17.0472259,21.9303478 C17.0472259,21.2071125 16.4609906,20.6208772 15.7377554,20.6208772 Z M21.6303436,8.83570076 C20.9071083,8.83570076 20.320873,9.42193606 20.320873,10.1451714 C20.320873,10.8684066 20.9071083,11.4546419 21.6303436,11.4546419 C22.3535789,11.4546419 22.9398142,10.8684066 22.9398142,10.1451714 C22.9398142,9.42193606 22.3535789,8.83570076 21.6303436,8.83570076 Z" id="Shape" transform="translate(16.065108, 16.037760) rotate(-34.000000) translate(-16.065108, -16.037760) "></path>
                    </g>
                    <rect id="Rectangle-6" x="0" y="0" width="32" height="32"></rect>
                </g>
            </g>
        </g>
    </g>
</svg>