<?xml version="1.0" encoding="UTF-8"?>
<svg width="40px" height="40px" viewBox="0 0 40 40" version="1.1" xmlns="http://www.w3.org/2000/svg" xmlns:xlink="http://www.w3.org/1999/xlink">
    <!-- Generator: Sketch 45 (43475) - http://www.bohemiancoding.com/sketch -->
    <title>jeep</title>
    <desc>Created with Sketch.</desc>
    <defs></defs>
    <g id="Page-1" stroke="none" stroke-width="1" fill="none" fill-rule="evenodd">
        <g id="home" transform="translate(-396.000000, -268.000000)" fill-rule="nonzero" fill="#303E47">
            <g id="new-request" transform="translate(256.000000, 176.000000)">
                <g id="section-credits" transform="translate(0.000000, 72.000000)">
                    <g id="car-tap" transform="translate(120.000000, 0.000000)">
                        <g id="Group">
                            <g id="jeep" transform="translate(20.000000, 20.000000)">
                                <path d="M40,24.2642553 C40,24.2603404 39.9994894,24.2565957 39.9994043,24.2526809 L39.9986383,18.2944681 C39.9986383,17.0039149 38.948766,15.9540426 37.6582128,15.9540426 L36.4446809,15.9540426 L36.1346383,13.4165957 L37.9667234,13.4165957 C38.319234,13.4165957 38.6050213,13.1308085 38.6050213,12.7782979 L38.6050213,8.62008511 C38.6050213,8.26757447 38.319234,7.98178723 37.9667234,7.98178723 C37.6142128,7.98178723 37.3284255,8.26757447 37.3284255,8.62008511 L37.3284255,12.14 L35.9786383,12.14 L34.9276596,3.53974468 C34.802383,2.5147234 33.8953191,1.71174468 32.8625532,1.71174468 L30.9476596,1.71174468 L30.9476596,0.647914894 C30.9476596,0.295404255 30.6618723,0.00961702128 30.3093617,0.00961702128 C29.9568511,0.00961702128 29.6710638,0.295404255 29.6710638,0.647914894 L29.6710638,1.71174468 L10.3274894,1.71174468 L10.3274894,0.647914894 C10.3274894,0.295404255 10.0417021,0.00961702128 9.68919149,0.00961702128 C9.33668085,0.00961702128 9.05089362,0.295404255 9.05089362,0.647914894 L9.05089362,1.71174468 L7.136,1.71174468 C6.10331915,1.71174468 5.19625532,2.5147234 5.07097872,3.53982979 L4.02008511,12.1400851 L2.7066383,12.1400851 L2.7066383,8.62017021 C2.7066383,8.26765957 2.42085106,7.98187234 2.06834043,7.98187234 C1.71582979,7.98187234 1.43004255,8.26765957 1.43004255,8.62017021 L1.43004255,12.778383 C1.43004255,13.1308936 1.71582979,13.4166809 2.06834043,13.4166809 L3.86408511,13.4166809 L3.55404255,15.9541277 L2.34042553,15.9541277 C1.04987234,15.9541277 0,17.004 0,18.2945532 L0,28.8980426 C0,29.2505532 0.285787234,29.5363404 0.638297872,29.5363404 L0.870212766,29.5363404 L0.870212766,38.0755745 C0.870212766,39.1314894 1.72919149,39.9904681 2.78510638,39.9904681 L7.856,39.9904681 C8.91191489,39.9904681 9.77089362,39.1314894 9.77089362,38.0755745 L9.77089362,31.451234 C9.77089362,31.0987234 9.48510638,30.8129362 9.13259574,30.8129362 C8.78008511,30.8129362 8.49429787,31.0987234 8.49429787,31.451234 L8.49429787,38.0755745 C8.49429787,38.4274894 8.208,38.7138723 7.856,38.7138723 L2.78510638,38.7138723 C2.43310638,38.7138723 2.14680851,38.4274894 2.14680851,38.0755745 L2.14680851,29.5363404 L37.8519149,29.5363404 L37.8519149,38.0755745 C37.8519149,38.4274894 37.565617,38.7138723 37.213617,38.7138723 L32.1427234,38.7138723 C31.7907234,38.7138723 31.5044255,38.4274894 31.5044255,38.0755745 L31.5044255,31.451234 C31.5044255,31.0987234 31.2186383,30.8129362 30.8661277,30.8129362 C30.513617,30.8129362 30.2278298,31.0987234 30.2278298,31.451234 L30.2278298,38.0755745 C30.2278298,39.1314894 31.0868085,39.9904681 32.1427234,39.9904681 L37.213617,39.9904681 C38.2695319,39.9904681 39.1285106,39.1314894 39.1285106,38.0755745 L39.1285106,29.5363404 L39.3617021,29.5363404 C39.5309787,29.5363404 39.6933617,29.4691064 39.8131064,29.3493617 C39.932766,29.2297021 40,29.0673191 40,28.8979574 L39.9994043,24.2757447 C39.9994894,24.2719149 40,24.2681702 40,24.2642553 Z M2.34042553,17.2306383 L5.11455319,17.2306383 C5.764,17.2306383 6.48859574,17.7788936 6.66502128,18.4039149 L7.64817021,21.8845106 C7.744,22.2237447 8.09702128,22.4212766 8.43591489,22.3252766 C8.77514894,22.2294468 8.97251064,21.8766809 8.87668085,21.5375319 L7.89361702,18.0569362 C7.56059574,16.8777872 6.33991489,15.9541277 5.11455319,15.9541277 L4.84017021,15.9541277 L6.33812766,3.6946383 C6.38417021,3.31838298 6.75693617,2.98825532 7.136,2.98825532 L32.8626383,2.98825532 C33.2417021,2.98825532 33.6145532,3.31829787 33.6605106,3.69455319 L35.1585532,15.9540426 L34.8841702,15.9540426 C33.6588936,15.9540426 32.4382128,16.8777021 32.1051064,18.0568511 L31.1220426,21.5374468 C31.0262979,21.8766809 31.2235745,22.2293617 31.5628085,22.3251915 C31.9019574,22.4209362 32.2547234,22.2237447 32.3505532,21.8844255 L33.333617,18.4038298 C33.5101277,17.7788085 34.2347234,17.2305532 34.8841702,17.2305532 L35.8770213,17.2305532 C35.8801702,17.2305532 37.6582128,17.2305532 37.6582128,17.2305532 C38.2448511,17.2305532 38.7220426,17.7077447 38.7220426,18.2944681 L38.7227234,23.6258723 L1.27659574,23.6258723 L1.27659574,18.2944681 C1.27659574,17.7079149 1.75378723,17.2306383 2.34042553,17.2306383 L2.34042553,17.2306383 Z M38.7233191,28.2597447 L1.27659574,28.2597447 L1.27659574,24.9025532 L38.7228936,24.9025532 L38.7233191,28.2597447 Z" id="Shape"></path>
                                <path d="M28.3128511,31.664 L11.6857872,31.664 C11.3332766,31.664 11.0474894,31.9497872 11.0474894,32.3022979 C11.0474894,32.6548085 11.3332766,32.9405957 11.6857872,32.9405957 L28.3128511,32.9405957 C28.6653617,32.9405957 28.9511489,32.6548085 28.9511489,32.3022979 C28.9511489,31.9497872 28.6653617,31.664 28.3128511,31.664 Z" id="Shape"></path>
                                <path d="M12.6027234,15.7074894 C11.051234,15.7074894 9.78893617,16.9697872 9.78893617,18.5212766 C9.78893617,20.072766 11.051234,21.3350638 12.6027234,21.3350638 C14.1542128,21.3350638 15.4165106,20.072766 15.4165106,18.5212766 C15.4165106,16.9697872 14.1542979,15.7074894 12.6027234,15.7074894 Z M12.6027234,20.0584681 C11.7551489,20.0584681 11.0655319,19.3688511 11.0655319,18.5212766 C11.0655319,17.6737021 11.7551489,16.9840851 12.6027234,16.9840851 C13.4502979,16.9840851 14.1399149,17.6737021 14.1399149,18.5212766 C14.1399149,19.3688511 13.450383,20.0584681 12.6027234,20.0584681 Z" id="Shape"></path>
                                <path d="M27.3959149,15.7074894 C25.8444255,15.7074894 24.5821277,16.9697872 24.5821277,18.5212766 C24.5821277,20.072766 25.8444255,21.3350638 27.3959149,21.3350638 C28.9474043,21.3350638 30.2097021,20.072766 30.2097021,18.5212766 C30.2097021,16.9697872 28.9474043,15.7074894 27.3959149,15.7074894 Z M27.3959149,20.0584681 C26.5483404,20.0584681 25.8587234,19.3688511 25.8587234,18.5212766 C25.8587234,17.6737021 26.5483404,16.9840851 27.3959149,16.9840851 C28.2434894,16.9840851 28.9331064,17.6737021 28.9331064,18.5212766 C28.9331064,19.3688511 28.2434894,20.0584681 27.3959149,20.0584681 Z" id="Shape"></path>
                                <path d="M17.388766,15.7074894 C17.0362553,15.7074894 16.7504681,15.9932766 16.7504681,16.3457872 L16.7504681,20.696766 C16.7504681,21.0492766 17.0362553,21.3350638 17.388766,21.3350638 C17.7412766,21.3350638 18.0270638,21.0492766 18.0270638,20.696766 L18.0270638,16.3457872 C18.0270638,15.9932766 17.7412766,15.7074894 17.388766,15.7074894 Z" id="Shape"></path>
                                <path d="M19.9993191,15.7074894 C19.6468085,15.7074894 19.3610213,15.9932766 19.3610213,16.3457872 L19.3610213,20.696766 C19.3610213,21.0492766 19.6468085,21.3350638 19.9993191,21.3350638 C20.3518298,21.3350638 20.637617,21.0492766 20.637617,20.696766 L20.637617,16.3457872 C20.637617,15.9932766 20.3518298,15.7074894 19.9993191,15.7074894 Z" id="Shape"></path>
                                <path d="M22.6099574,15.7074894 C22.2574468,15.7074894 21.9716596,15.9932766 21.9716596,16.3457872 L21.9716596,20.696766 C21.9716596,21.0492766 22.2574468,21.3350638 22.6099574,21.3350638 C22.9624681,21.3350638 23.2482553,21.0492766 23.2482553,20.696766 L23.2482553,16.3457872 C23.2482553,15.9932766 22.9624681,15.7074894 22.6099574,15.7074894 Z" id="Shape"></path>
                                <path d="M33.4986383,12.778383 C33.4986383,12.4258723 33.2128511,12.1400851 32.8603404,12.1400851 L7.13838298,12.1400851 C6.78587234,12.1400851 6.50008511,12.4258723 6.50008511,12.778383 C6.50008511,13.1308936 6.78587234,13.4166809 7.13838298,13.4166809 L32.8603404,13.4166809 C33.2128511,13.4166809 33.4986383,13.1308936 33.4986383,12.778383 Z" id="Shape"></path>
                            </g>
                        </g>
                    </g>
                </g>
            </g>
        </g>
    </g>
</svg>