<?xml version="1.0" encoding="UTF-8"?>
<svg width="28px" height="32px" viewBox="0 0 28 32" version="1.1" xmlns="http://www.w3.org/2000/svg" xmlns:xlink="http://www.w3.org/1999/xlink">
    <!-- Generator: Sketch 45 (43475) - http://www.bohemiancoding.com/sketch -->
    <title>domicilio</title>
    <desc>Created with Sketch.</desc>
    <defs></defs>
    <g id="Page-1" stroke="none" stroke-width="1" fill="none" fill-rule="evenodd">
        <g id="upload-files" transform="translate(-1099.000000, -384.000000)" fill-rule="nonzero" fill="#303E47">
            <g id="section-upload-docs" transform="translate(371.000000, 356.000000)">
                <g id="upload-tap" transform="translate(672.000000, 0.000000)">
                    <g id="Group">
                        <g id="domicilio" transform="translate(56.000000, 28.000000)">
                            <path d="M23.1568125,12.8979375 L17.116,12.8979375 C16.8454375,12.8979375 16.6261875,13.11725 16.6261875,13.38775 C16.6261875,13.65825 16.8454375,13.8775625 17.116,13.8775625 L23.1568125,13.8775625 C23.427375,13.8775625 23.646625,13.65825 23.646625,13.38775 C23.646625,13.11725 23.427375,12.8979375 23.1568125,12.8979375 Z" id="Shape"></path>
                            <path d="M23.1568125,15.83675 L17.116,15.83675 C16.8454375,15.83675 16.6261875,16.0560625 16.6261875,16.3265625 C16.6261875,16.5970625 16.8454375,16.816375 17.116,16.816375 L23.1568125,16.816375 C23.427375,16.816375 23.646625,16.5970625 23.646625,16.3265625 C23.646625,16.0559375 23.427375,15.83675 23.1568125,15.83675 Z" id="Shape"></path>
                            <path d="M23.1568125,18.7754375 L17.116,18.7754375 C16.8454375,18.7754375 16.6261875,18.99475 16.6261875,19.26525 C16.6261875,19.53575 16.8454375,19.7550625 17.116,19.7550625 L23.1568125,19.7550625 C23.427375,19.7550625 23.646625,19.53575 23.646625,19.26525 C23.646625,18.99475 23.427375,18.7754375 23.1568125,18.7754375 Z" id="Shape"></path>
                            <path d="M13.6058125,12.8979375 L10.422125,12.8979375 C10.1515625,12.8979375 9.9323125,13.11725 9.9323125,13.38775 C9.9323125,13.65825 10.1515625,13.8775625 10.422125,13.8775625 L13.6058125,13.8775625 C13.876375,13.8775625 14.095625,13.65825 14.095625,13.38775 C14.095625,13.11725 13.876375,12.8979375 13.6058125,12.8979375 Z" id="Shape"></path>
                            <path d="M13.6058125,15.83675 L10.422125,15.83675 C10.1515625,15.83675 9.9323125,16.0560625 9.9323125,16.3265625 C9.9323125,16.5970625 10.1515625,16.816375 10.422125,16.816375 L13.6058125,16.816375 C13.876375,16.816375 14.095625,16.5970625 14.095625,16.3265625 C14.095625,16.0560625 13.876375,15.83675 13.6058125,15.83675 Z" id="Shape"></path>
                            <path d="M13.6058125,18.7754375 L10.422125,18.7754375 C10.1515625,18.7754375 9.9323125,18.99475 9.9323125,19.26525 C9.9323125,19.53575 10.1515625,19.7550625 10.422125,19.7550625 L13.6058125,19.7550625 C13.876375,19.7550625 14.095625,19.53575 14.095625,19.26525 C14.095625,18.99475 13.876375,18.7754375 13.6058125,18.7754375 Z" id="Shape"></path>
                            <path d="M13.6058125,21.7141875 L10.422125,21.7141875 C10.1515625,21.7141875 9.9323125,21.9335 9.9323125,22.204 C9.9323125,22.4745 10.1515625,22.6938125 10.422125,22.6938125 L13.6058125,22.6938125 C13.876375,22.6938125 14.095625,22.4745 14.095625,22.204 C14.095625,21.9335 13.876375,21.7141875 13.6058125,21.7141875 Z" id="Shape"></path>
                            <path d="M23.1568125,9.632625 L10.422125,9.632625 C10.1515625,9.632625 9.9323125,9.8519375 9.9323125,10.1224375 C9.9323125,10.3929375 10.1515625,10.61225 10.422125,10.61225 L23.1568125,10.61225 C23.427375,10.61225 23.646625,10.3929375 23.646625,10.1224375 C23.646625,9.8519375 23.427375,9.632625 23.1568125,9.632625 Z" id="Shape"></path>
                            <path d="M23.1568125,24.7836875 L10.422125,24.7836875 C10.1515625,24.7836875 9.9323125,25.003 9.9323125,25.2735 C9.9323125,25.544 10.1515625,25.7633125 10.422125,25.7633125 L23.1568125,25.7633125 C23.427375,25.7633125 23.646625,25.544 23.646625,25.2735 C23.646625,25.003 23.427375,24.7836875 23.1568125,24.7836875 Z" id="Shape"></path>
                            <path d="M13.6058125,27.2653125 L10.422125,27.2653125 C10.1515625,27.2653125 9.9323125,27.484625 9.9323125,27.755125 C9.9323125,28.025625 10.1515625,28.2449375 10.422125,28.2449375 L13.6058125,28.2449375 C13.876375,28.2449375 14.095625,28.025625 14.095625,27.755125 C14.095625,27.484625 13.876375,27.2653125 13.6058125,27.2653125 Z" id="Shape"></path>
                            <path d="M16.9015,2.906125 C14.8706875,2.906125 13.279875,4.04725 13.279875,5.5039375 C13.279875,6.96075 14.8706875,8.101875 16.9015,8.101875 C18.93225,8.1019375 20.523125,6.9606875 20.523125,5.5039375 C20.5230625,4.0471875 18.9323125,2.906125 16.9015,2.906125 Z M16.9015,7.1223125 C15.4693125,7.122375 14.2595,6.3811875 14.2595,5.5039375 C14.2595,4.62675 15.469375,3.8856875 16.9015,3.8856875 C18.3336875,3.8856875 19.5435,4.62675 19.5435,5.5039375 C19.5435,6.3811875 18.333625,7.1223125 16.9015,7.1223125 Z" id="Shape"></path>
                            <path d="M26.88025,27.8530625 C26.6096875,27.8530625 26.3904375,28.072375 26.3904375,28.342875 L26.3904375,30.5223125 C26.3904375,30.797 26.158375,31.020375 25.8731875,31.020375 L7.4435625,31.020375 C7.1583125,31.020375 6.9261875,30.796875 6.9261875,30.5223125 L6.9261875,3.404125 C6.9261875,2.4560625 6.53025,1.597375 5.8924375,0.9795625 L23.909375,0.9795625 C25.277375,0.9795625 26.390375,2.06725 26.390375,3.404125 L26.390375,26.383625 C26.390375,26.654125 26.609625,26.8734375 26.8801875,26.8734375 C27.15075,26.8734375 27.37,26.654125 27.37,26.383625 L27.37,3.404125 C27.37,1.527125 25.8175,0 23.909375,0 L3.465625,0 C1.5574375,0 0.0049375,1.527125 0.0049375,3.404125 L0.0049375,4.506125 C0.0049375,4.776625 0.2241875,4.9959375 0.49475,4.9959375 C0.7653125,4.9959375 0.9845625,4.776625 0.9845625,4.506125 L0.9845625,3.404125 C0.9845,2.06725 2.0975,0.9795625 3.465625,0.9795625 C4.833625,0.9795625 5.946625,2.06725 5.946625,3.404125 L5.946625,13.94325 C5.916375,13.9681875 5.888875,13.9968125 5.865125,14.029 C5.72125,14.2233125 5.5015,14.3346875 5.2620625,14.3346875 C5.06025,14.3346875 4.8708125,14.2555625 4.7285,14.1118125 C4.6365625,14.018875 4.5111875,13.9665625 4.3804375,13.9665625 C4.2496875,13.9665625 4.1243125,14.018875 4.032375,14.1118125 C3.8900625,14.2555625 3.700625,14.3346875 3.4988125,14.3346875 C3.358125,14.3346875 3.223875,14.2954375 3.107,14.2234375 L3.107,11.5665625 C3.107,11.2960625 2.88775,11.07675 2.6171875,11.07675 C2.3466875,11.07675 2.127375,11.2960625 2.127375,11.5665625 L2.127375,14.2234375 C2.0105,14.2954375 1.8761875,14.3346875 1.7355625,14.3346875 C1.3214375,14.3346875 0.9845625,13.99775 0.9845625,13.5836875 L0.9845625,6.7918125 C0.9845625,6.5213125 0.7653125,6.302 0.49475,6.302 C0.2241875,6.302 0.0049375,6.5213125 0.0049375,6.7918125 L0.0049375,13.583625 C0.0049375,14.537875 0.7813125,15.31425 1.7355625,15.31425 C2.0509375,15.31425 2.3531875,15.2305 2.6171875,15.0735 C2.8811875,15.2305 3.1834375,15.31425 3.4988125,15.31425 C3.8141875,15.31425 4.1164375,15.2305 4.3804375,15.0735 C4.6445,15.2305 4.9466875,15.31425 5.2620625,15.31425 C5.4998125,15.31425 5.7325,15.2638125 5.9466875,15.1708125 L5.9466875,30.52225 C5.9466875,31.3370625 6.61825,31.9999375 7.443625,31.9999375 L25.8731875,31.9999375 C26.6985,31.9999375 27.37,31.3370625 27.37,30.52225 L27.37,28.3428125 C27.3700625,28.072375 27.1508125,27.8530625 26.88025,27.8530625 Z" id="Shape"></path>
                        </g>
                    </g>
                </g>
            </g>
        </g>
    </g>
</svg>