<?xml version="1.0" encoding="UTF-8"?>
<svg width="32px" height="32px" viewBox="0 0 32 32" version="1.1" xmlns="http://www.w3.org/2000/svg" xmlns:xlink="http://www.w3.org/1999/xlink">
    <!-- Generator: Sketch 45 (43475) - http://www.bohemiancoding.com/sketch -->
    <title>home</title>
    <desc>Created with Sketch.</desc>
    <defs></defs>
    <g id="Page-1" stroke="none" stroke-width="1" fill="none" fill-rule="evenodd">
        <g id="upload-files" transform="translate(-36.000000, -192.000000)">
            <g id="nav-bar">
                <g id="home" transform="translate(36.000000, 192.000000)">
                    <rect id="Rectangle-6-Copy" x="0" y="0" width="32" height="32"></rect>
                    <g id="Shape" fill-rule="nonzero" fill="#2B3B46">
                        <path d="M31.383322,14.4444746 L15.8275254,0 L0.272271186,14.4444746 C0.0531525424,14.6484068 0.0401355932,14.9917288 0.244067797,15.2113898 C0.446915254,15.4305085 0.791322034,15.4429831 1.01044068,15.2395932 L2.81057627,13.568 L2.81057627,31.6555932 L11.4885424,31.6555932 L20.1665085,31.6555932 L28.8444746,31.6555932 L28.8444746,13.5674576 L30.6446102,15.2390508 C30.7487458,15.3361356 30.8816271,15.3838644 31.0139661,15.3838644 C31.1598644,15.3838644 31.304678,15.3258305 31.4109831,15.2108475 C31.6154576,14.9917288 31.6024407,14.6484068 31.383322,14.4444746 Z M12.5732881,30.5708475 L12.5732881,21.8928814 C12.5732881,20.0981695 14.0328136,18.6386441 15.8275254,18.6386441 C17.6222373,18.6386441 19.0817627,20.0981695 19.0817627,21.8928814 L19.0817627,30.5708475 L12.5732881,30.5708475 Z M27.7597288,30.5708475 L20.1665085,30.5708475 L20.1665085,21.8928814 C20.1665085,19.5004746 18.2199322,17.5538983 15.8275254,17.5538983 C13.4351186,17.5538983 11.4885424,19.5004746 11.4885424,21.8928814 L11.4885424,30.5708475 L3.89532203,30.5708475 L3.89532203,12.5602712 L15.8275254,1.48013559 L27.7597288,12.5602712 L27.7597288,30.5708475 Z"></path>
                    </g>
                </g>
            </g>
        </g>
    </g>
</svg>