<?xml version="1.0" encoding="UTF-8"?>
<svg width="34px" height="29px" viewBox="0 0 34 29" version="1.1" xmlns="http://www.w3.org/2000/svg" xmlns:xlink="http://www.w3.org/1999/xlink">
    <!-- Generator: Sketch 45 (43475) - http://www.bohemiancoding.com/sketch -->
    <title>id-card</title>
    <desc>Created with Sketch.</desc>
    <defs></defs>
    <g id="Page-1" stroke="none" stroke-width="1" fill="none" fill-rule="evenodd">
        <g id="upload-files" transform="translate(-425.000000, -385.000000)" fill-rule="nonzero" fill="#303E47">
            <g id="section-upload-docs" transform="translate(371.000000, 356.000000)">
                <g id="upload-tap">
                    <g id="Group">
                        <g id="id-card" transform="translate(54.000000, 29.000000)">
                            <path d="M29.125,1.292 L3.928,1.292 C3.652,1.292 3.428,1.068 3.428,0.792 C3.428,0.516 3.652,0.292 3.928,0.292 L29.125,0.292 C29.401,0.292 29.625,0.516 29.625,0.792 C29.625,1.068 29.401,1.292 29.125,1.292 Z" id="Shape"></path>
                            <g id="Group" transform="translate(0.000000, 3.000000)">
                                <g id="Shape">
                                    <path d="M30.554,25.761 L2.5,25.761 C1.121,25.761 0,24.639 0,23.261 L0,3.005 C0,1.627 1.121,0.505 2.5,0.505 L30.554,0.505 C31.933,0.505 33.054,1.627 33.054,3.005 L33.054,23.262 C33.054,24.64 31.933,25.761 30.554,25.761 Z M2.5,1.505 C1.673,1.505 1,2.178 1,3.005 L1,23.262 C1,24.089 1.673,24.762 2.5,24.762 L30.554,24.762 C31.381,24.762 32.054,24.089 32.054,23.262 L32.054,3.005 C32.054,2.178 31.381,1.505 30.554,1.505 L2.5,1.505 Z"></path>
                                    <path d="M25.117,1.505 L7.937,1.505 C7.661,1.505 7.437,1.281 7.437,1.005 C7.437,0.729 7.661,0.505 7.937,0.505 L25.118,0.505 C25.394,0.505 25.618,0.729 25.618,1.005 C25.618,1.281 25.394,1.505 25.117,1.505 Z"></path>
                                </g>
                                <path d="M17.091,20.837 L5.327,20.837 C5.051,20.837 4.827,20.613 4.827,20.337 L4.827,18.999 C4.827,18.165 5.314,17.394 6.069,17.037 L8.717,15.409 C7.862,14.716 7.331,13.687 7.288,12.573 L7.187,9.937 C7.187,7.922 8.833,6.299 10.858,6.299 L11.556,6.299 C13.58,6.299 15.228,7.923 15.228,9.918 L15.126,12.573 C15.083,13.689 14.552,14.719 13.694,15.411 L16.37,17.049 C17.111,17.411 17.589,18.174 17.589,19 L17.589,20.337 C17.591,20.613 17.367,20.837 17.091,20.837 Z M5.827,19.837 L16.591,19.837 L16.591,19 C16.591,18.549 16.327,18.134 15.919,17.941 C15.903,17.933 15.887,17.925 15.872,17.915 L12.497,15.849 C12.342,15.754 12.25,15.583 12.258,15.401 C12.267,15.219 12.372,15.056 12.534,14.975 C13.478,14.504 14.089,13.569 14.128,12.534 L14.23,9.898 C14.23,8.473 13.032,7.298 11.558,7.298 L10.86,7.298 C9.387,7.298 8.189,8.473 8.189,9.917 L8.29,12.534 C8.329,13.566 8.937,14.501 9.879,14.973 C10.041,15.054 10.147,15.217 10.154,15.398 C10.161,15.58 10.07,15.751 9.916,15.846 L6.546,17.914 C6.091,18.133 5.828,18.548 5.828,18.998 L5.828,19.837 L5.827,19.837 Z" id="Shape"></path>
                                <g transform="translate(21.000000, 8.000000)" id="Shape">
                                    <path d="M6.798,1.627 L0.621,1.627 C0.345,1.627 0.121,1.403 0.121,1.127 C0.121,0.851 0.345,0.627 0.621,0.627 L6.798,0.627 C7.074,0.627 7.298,0.851 7.298,1.127 C7.298,1.403 7.074,1.627 6.798,1.627 Z"></path>
                                    <path d="M6.798,6.066 L0.621,6.066 C0.345,6.066 0.121,5.842 0.121,5.566 C0.121,5.29 0.345,5.066 0.621,5.066 L6.798,5.066 C7.074,5.066 7.298,5.29 7.298,5.566 C7.298,5.842 7.074,6.066 6.798,6.066 Z"></path>
                                    <path d="M6.798,10.508 L0.621,10.508 C0.345,10.508 0.121,10.284 0.121,10.008 C0.121,9.732 0.345,9.508 0.621,9.508 L6.798,9.508 C7.074,9.508 7.298,9.732 7.298,10.008 C7.298,10.284 7.074,10.508 6.798,10.508 Z"></path>
                                </g>
                            </g>
                        </g>
                    </g>
                </g>
            </g>
        </g>
    </g>
</svg>