<?xml version="1.0" encoding="UTF-8"?>
<svg width="32px" height="32px" viewBox="0 0 32 32" version="1.1" xmlns="http://www.w3.org/2000/svg" xmlns:xlink="http://www.w3.org/1999/xlink">
    <!-- Generator: Sketch 45 (43475) - http://www.bohemiancoding.com/sketch -->
    <title>invoice</title>
    <desc>Created with Sketch.</desc>
    <defs></defs>
    <g id="Page-1" stroke="none" stroke-width="1" fill="none" fill-rule="evenodd">
        <g id="upload-files" transform="translate(-651.000000, -384.000000)" fill-rule="nonzero" fill="#303E47">
            <g id="section-upload-docs" transform="translate(371.000000, 356.000000)">
                <g id="upload-tap" transform="translate(224.000000, 0.000000)">
                    <g id="Group">
                        <g id="invoice" transform="translate(56.000000, 28.000000)">
                            <path d="M31.4623342,8.99422108 L22.4490283,8.99422108 L22.4490283,0.48633419 L22.4490283,0.444215938 C22.4490283,0.402097686 22.4490283,0.402097686 22.4490283,0.359979434 C22.4490283,0.317861183 22.40691,0.317861183 22.40691,0.275742931 C22.40691,0.233624679 22.3647918,0.233624679 22.3647918,0.191506427 C22.3647918,0.149388175 22.3226735,0.149388175 22.2805553,0.149388175 L22.238437,0.107269923 C22.1963188,0.107269923 22.1963188,0.107269923 22.1542005,0.065151671 C22.1120823,0.065151671 22.1120823,0.065151671 22.069964,0.065151671 L0.379064267,0.065151671 C0.336946015,0.065151671 0.336946015,0.065151671 0.294827763,0.065151671 C0.252709512,0.065151671 0.252709512,0.065151671 0.21059126,0.107269923 L0.168473008,0.149388175 C0.126354756,0.149388175 0.126354756,0.191506427 0.0842365039,0.191506427 C0.0842365039,0.191506427 0.0421182519,0.233624679 0.0421182519,0.275742931 C0.0421182519,0.317861183 0,0.317861183 0,0.359979434 C0,0.402097686 0,0.402097686 0,0.444215938 L0,0.48633419 L0,29.4215733 C0,29.6742828 0.168473008,29.8427558 0.421182519,29.8427558 L14.6992699,29.8427558 L14.6992699,31.3168946 C14.6992699,31.5696041 14.8677429,31.7380771 15.1204524,31.7380771 L31.5465707,31.7380771 C31.7992802,31.7380771 31.9677532,31.5696041 31.9677532,31.3168946 L31.9677532,9.4154036 C31.8835167,9.16269409 31.7150437,8.99422108 31.4623342,8.99422108 Z M21.3539537,0.90751671 L19.5428689,4.19274036 L2.86404113,4.19274036 L1.0529563,0.90751671 L21.3539537,0.90751671 Z M15.0362159,8.95210283 C14.8256247,8.99422108 14.6150334,9.16269409 14.6150334,9.4154036 L14.6150334,29.0003907 L0.800246787,29.0003907 L0.800246787,2.12894602 L2.2743856,4.82451414 C2.35862211,4.95086889 2.48497686,5.0351054 2.65344987,5.0351054 L19.7955784,5.0351054 C19.9640514,5.0351054 20.0904062,4.95086889 20.1746427,4.82451414 L21.6487815,2.12894602 L21.6487815,8.95210283 L15.0362159,8.95210283 Z M31.0411517,30.8957121 L15.4573985,30.8957121 L15.4573985,9.83658612 L31.0411517,9.83658612 L31.0411517,30.8957121 Z" id="Shape"></path>
                            <path d="M28.3877018,25.0833933 L18.1950848,25.0833933 C17.9423753,25.0833933 17.7739023,25.2518663 17.7739023,25.5045758 C17.7739023,25.7572853 17.9844936,25.9257584 18.1950848,25.9257584 L28.3877018,25.9257584 C28.6404113,25.9257584 28.8088843,25.7572853 28.8088843,25.5045758 C28.8088843,25.2518663 28.6404113,25.0833933 28.3877018,25.0833933 Z" id="Shape"></path>
                            <path d="M28.3877018,27.2314242 L18.1950848,27.2314242 C17.9423753,27.2314242 17.7739023,27.3998972 17.7739023,27.6526067 C17.7739023,27.8631979 17.9844936,28.0737892 18.1950848,28.0737892 L28.3877018,28.0737892 C28.6404113,28.0737892 28.8088843,27.9053162 28.8088843,27.6526067 C28.8088843,27.3998972 28.6404113,27.2314242 28.3877018,27.2314242 Z" id="Shape"></path>
                            <path d="M11.540401,15.4804319 L11.4982828,12.5742725 C12.0879383,12.7427455 12.5512391,13.2902828 12.5933573,13.9641748 C12.5933573,14.2168843 12.8039486,14.3853573 13.0145398,14.3853573 C13.2672494,14.3853573 13.4357224,14.1747661 13.4357224,13.9641748 C13.3936041,12.826982 12.5933573,11.9003805 11.4982828,11.7319075 L11.4982828,11.2686067 C11.4982828,11.0158972 11.2876915,10.8474242 11.0771003,10.8474242 C10.8243907,10.8474242 10.6559177,11.0580154 10.6559177,11.2686067 L10.6559177,11.7319075 C10.192617,11.816144 9.77143445,12.0688535 9.43448843,12.4057995 C9.01330591,12.8691003 8.7605964,13.4166375 8.80271465,14.0484113 C8.80271465,14.6801851 9.05542416,15.2277224 9.51872494,15.6910231 C9.85567095,16.0279692 10.2768535,16.2385604 10.7401542,16.2806787 L10.7822725,19.186838 C10.192617,18.9762468 9.8135527,18.4708278 9.77143445,17.839054 C9.77143445,17.5863445 9.56084319,17.4178715 9.35025193,17.4178715 C9.09754242,17.4178715 8.92906941,17.6284627 8.92906941,17.839054 C8.97118766,18.9341285 9.7293162,19.8607301 10.7822725,20.0713213 L10.7822725,20.5346221 C10.7822725,20.7452134 10.9928638,20.9558046 11.203455,20.9558046 C11.4561645,20.9558046 11.6246375,20.7452134 11.6246375,20.5346221 L11.6246375,20.1134396 C12.7197121,19.9449666 13.5620771,18.9341285 13.5620771,17.7969357 C13.5199589,16.5755064 12.6775938,15.6489049 11.540401,15.4804319 Z M10.0662622,15.0592494 C9.77143445,14.8065398 9.60296144,14.4274756 9.60296144,14.0484113 C9.60296144,13.669347 9.7293162,13.2902828 10.024144,12.995455 C10.192617,12.826982 10.4032082,12.7006272 10.6559177,12.6163907 L10.698036,15.4383136 C10.4874447,15.3540771 10.2347352,15.2277224 10.0662622,15.0592494 Z M11.6246375,19.186838 L11.5825193,16.3227969 C11.8352288,16.3649152 12.0879383,16.4912699 12.2985296,16.7018612 C12.5933573,16.9545707 12.7618303,17.333635 12.7618303,17.7126992 C12.7197121,18.4287095 12.2564113,19.018365 11.6246375,19.186838 Z" id="Shape"></path>
                            <path d="M24.9761234,17.5863445 C24.6391774,17.2493985 24.1758766,16.9966889 23.6704576,16.9545707 L23.6704576,14.0484113 C23.8810488,14.1326478 24.1337584,14.2168843 24.3022314,14.4274756 C24.5970591,14.7223033 24.7234139,15.0592494 24.7234139,15.4804319 C24.7234139,15.7331414 24.8918869,15.9016144 25.1445964,15.9016144 C25.3973059,15.9016144 25.5657789,15.7331414 25.5657789,15.4804319 C25.5657789,14.8486581 25.3130694,14.3011208 24.8918869,13.8378201 C24.5549409,13.500874 24.1337584,13.2902828 23.6704576,13.2060463 L23.6704576,12.7427455 C23.6704576,12.490036 23.5019846,12.321563 23.2492751,12.321563 C22.9965656,12.321563 22.8280925,12.490036 22.8280925,12.7427455 L22.8280925,13.163928 C21.733018,13.3745193 20.9327712,14.3011208 20.9327712,15.4383136 C20.9327712,16.5333882 21.7751362,17.4599897 22.8280925,17.670581 L22.8280925,20.5767404 C22.6175013,20.4925039 22.4490283,20.4082674 22.2805553,20.2397943 C21.9857275,19.9449666 21.8593728,19.6080206 21.8593728,19.186838 C21.8593728,18.9341285 21.6908997,18.7656555 21.4381902,18.7656555 C21.1854807,18.7656555 21.0170077,18.9341285 21.0170077,19.186838 C21.0170077,20.2819126 21.7751362,21.2085141 22.8280925,21.4612237 L22.8280925,21.9245244 C22.8280925,22.1772339 22.9965656,22.3457069 23.2492751,22.3457069 C23.5019846,22.3457069 23.6704576,22.1772339 23.6704576,21.9245244 L23.6704576,21.5033419 C24.1758766,21.4191054 24.5970591,21.2085141 24.9761234,20.8715681 C25.3973059,20.4503856 25.6500154,19.8607301 25.6500154,19.2289563 C25.6500154,18.5971825 25.3973059,18.0496452 24.9761234,17.5863445 Z M22.8280925,16.8282159 C22.6175013,16.7439794 22.3647918,16.6597429 22.1963188,16.4491517 C21.901491,16.1543239 21.7751362,15.8173779 21.7751362,15.3961954 C21.7751362,14.7223033 22.238437,14.1747661 22.8280925,14.0062931 L22.8280925,16.8282159 Z M24.3864679,20.2397943 C24.1758766,20.4503856 23.9652853,20.5767404 23.6704576,20.6188586 L23.6704576,17.7548175 C24.3022314,17.9232905 24.8076504,18.4708278 24.8076504,19.186838 C24.8076504,19.5659023 24.6391774,19.9449666 24.3864679,20.2397943 Z" id="Shape"></path>
                        </g>
                    </g>
                </g>
            </g>
        </g>
    </g>
</svg>