<?xml version="1.0" encoding="UTF-8"?>
<svg width="40px" height="40px" viewBox="0 0 40 40" version="1.1" xmlns="http://www.w3.org/2000/svg" xmlns:xlink="http://www.w3.org/1999/xlink">
    <!-- Generator: Sketch 45 (43475) - http://www.bohemiancoding.com/sketch -->
    <title>home</title>
    <desc>Created with Sketch.</desc>
    <defs></defs>
    <g id="Page-1" stroke="none" stroke-width="1" fill="none" fill-rule="evenodd">
        <g id="home" transform="translate(-276.000000, -268.000000)" fill-rule="nonzero" fill="#303E47">
            <g id="new-request" transform="translate(256.000000, 176.000000)">
                <g id="section-credits" transform="translate(0.000000, 72.000000)">
                    <g id="mort-tap">
                        <g id="Group">
                            <g id="home" transform="translate(20.000000, 20.000000)">
                                <path d="M39.2291525,18.0555932 L33.3437288,12.5905085 L33.3437288,3.63728814 L26.5640678,3.63728814 L26.5640678,6.29559322 L19.7844068,0 L0.340338983,18.0555932 C0.066440678,18.3105085 0.0501694915,18.739661 0.305084746,19.0142373 C0.559322034,19.2881356 0.988474576,19.3037288 1.26372881,19.0494915 L3.51389831,16.96 L3.51389831,39.5694915 L14.3613559,39.5694915 L25.2088136,39.5694915 L36.0562712,39.5694915 L36.0562712,16.959322 L38.3064407,19.0488136 C38.4366102,19.1701695 38.6027119,19.2298305 38.7681356,19.2298305 C38.9505085,19.2298305 39.1315254,19.1572881 39.2644068,19.0135593 C39.519322,18.739661 39.5030508,18.3105085 39.2291525,18.0555932 Z M27.92,4.99322034 L31.9877966,4.99322034 L31.9877966,11.3315254 L27.92,7.55457627 L27.92,4.99322034 Z M15.7166102,38.2135593 L15.7166102,23.9335593 C15.7166102,23.5830508 16.0013559,23.2983051 16.3518644,23.2983051 L23.2169492,23.2983051 C23.5674576,23.2983051 23.8522034,23.5830508 23.8522034,23.9335593 L23.8522034,38.2135593 L15.7166102,38.2135593 L15.7166102,38.2135593 Z M34.699661,38.2135593 L25.2081356,38.2135593 L25.2081356,23.9335593 C25.2081356,22.8352542 24.3152542,21.9423729 23.2169492,21.9423729 L16.3518644,21.9423729 C15.2535593,21.9423729 14.360678,22.8352542 14.360678,23.9335593 L14.360678,38.2135593 L4.86915254,38.2135593 L4.86915254,15.700339 L19.7844068,1.85016949 L29.4657627,10.84 L33.3437288,14.440678 L33.3437288,14.440678 L34.699661,15.699661 L34.699661,38.2135593 Z" id="Shape"></path>
                            </g>
                        </g>
                    </g>
                </g>
            </g>
        </g>
    </g>
</svg>