<?xml version="1.0" encoding="UTF-8"?>
<svg width="36px" height="40px" viewBox="0 0 36 40" version="1.1" xmlns="http://www.w3.org/2000/svg" xmlns:xlink="http://www.w3.org/1999/xlink">
    <!-- Generator: Sketch 45 (43475) - http://www.bohemiancoding.com/sketch -->
    <title>alarm</title>
    <desc>Created with Sketch.</desc>
    <defs>
        <filter x="-0.5%" y="-3.9%" width="101.0%" height="110.9%" filterUnits="objectBoundingBox" id="filter-1">
            <feOffset dx="0" dy="2" in="SourceAlpha" result="shadowOffsetOuter1"></feOffset>
            <feGaussianBlur stdDeviation="2" in="shadowOffsetOuter1" result="shadowBlurOuter1"></feGaussianBlur>
            <feColorMatrix values="0 0 0 0 0   0 0 0 0 0   0 0 0 0 0  0 0 0 0.11 0" type="matrix" in="shadowBlurOuter1" result="shadowMatrixOuter1"></feColorMatrix>
            <feMerge>
                <feMergeNode in="shadowMatrixOuter1"></feMergeNode>
                <feMergeNode in="SourceGraphic"></feMergeNode>
            </feMerge>
        </filter>
    </defs>
    <g id="Page-1" stroke="none" stroke-width="1" fill="none" fill-rule="evenodd">
        <g id="home" transform="translate(-1000.000000, -46.000000)" fill-rule="nonzero" fill="#2B3B46">
            <g id="header" filter="url(#filter-1)">
                <g id="notifications" transform="translate(1000.000000, 48.000000)">
                    <g id="notifications-icon" transform="translate(4.000000, 0.000000)">
                        <g id="alarm">
                            <path d="M28.1460364,26.3511273 C25.4347636,23.6567273 24.0605091,20.4677818 24.0605091,16.8727273 L24.0605091,11.6398545 C24.0855273,7.65032727 21.4027636,5.00421818 19.0976,3.95054545 C18.4372364,3.64858182 17.7565091,3.41585455 17.0647273,3.24305455 L17.0647273,2.90909091 C17.0647273,1.30501818 15.7597091,0 14.1556364,0 C12.5515636,0 11.2465455,1.30501818 11.2465455,2.90909091 L11.2465455,3.29367273 C10.6234182,3.46181818 10.0107636,3.68116364 9.41614545,3.95578182 C6.86836364,5.12989091 4.28741818,7.95985455 4.26414545,11.6363636 L4.26414545,16.8727273 C4.26414545,20.5893818 2.95156364,23.7783273 0.363054545,26.3511273 C0.208872727,26.5047273 0.153018182,26.7310545 0.218181818,26.9387636 C0.283345455,27.1464727 0.459636364,27.3000727 0.674327273,27.3373091 L6.19636364,28.2909091 C7.22501818,28.4683636 8.17221818,28.6138182 9.07345455,28.7336727 C10.0893091,30.7234909 12.0832,32 14.2615273,32 C16.4404364,32 18.4349091,30.7223273 19.4496,28.7313455 C20.3473455,28.6120727 21.2898909,28.4672 22.3127273,28.2903273 L27.8341818,27.3367273 C28.0488727,27.3000727 28.2245818,27.1458909 28.2903273,26.9381818 C28.3560727,26.7310545 28.3002182,26.5047273 28.1460364,26.3511273 Z M12.4096,2.90909091 C12.4096,1.94676364 13.1927273,1.16363636 14.1550545,1.16363636 C15.1173818,1.16363636 15.9005091,1.94676364 15.9005091,2.90909091 L15.9005091,3.01498182 C14.7409455,2.84858182 13.5645091,2.85556364 12.4096,3.04232727 L12.4096,2.90909091 Z M14.2615273,30.8363636 C12.7883636,30.8363636 11.4117818,30.1044364 10.528,28.9076364 C11.8283636,29.0414545 13.0420364,29.1089455 14.2551273,29.1089455 C15.4728727,29.1089455 16.6906182,29.0414545 17.9962182,28.9058909 C17.1118545,30.1038545 15.7346909,30.8363636 14.2615273,30.8363636 Z M22.1149091,27.1435636 C20.9984,27.3361455 19.9749818,27.4926545 19.008,27.616 C19.0068364,27.616 19.0056727,27.616 19.0045091,27.616 C18.5786182,27.6701091 18.1643636,27.7172364 17.7588364,27.7579636 C17.7547636,27.7585455 17.7501091,27.7585455 17.7460364,27.7591273 C17.3754182,27.7963636 17.0129455,27.8260364 16.6545455,27.8522182 C16.5864727,27.8574545 16.5189818,27.8615273 16.4509091,27.8661818 C16.1402182,27.8865455 15.8330182,27.9028364 15.5275636,27.9144727 C15.4647273,27.9168 15.4018909,27.9202909 15.3390545,27.9220364 C14.6152727,27.9464727 13.9013818,27.9464727 13.1781818,27.9226182 C13.1141818,27.9202909 13.0490182,27.9173818 12.9850182,27.9144727 C12.6836364,27.9028364 12.3799273,27.8871273 12.0733091,27.8667636 C12.0011636,27.8621091 11.9290182,27.8574545 11.8562909,27.8522182 C11.5072,27.8272 11.1540364,27.7975273 10.7927273,27.7620364 C10.7799273,27.7608727 10.7677091,27.7597091 10.7554909,27.7585455 C10.3528727,27.7184 9.94152727,27.6712727 9.51854545,27.6177455 C9.5168,27.6177455 9.51505455,27.6177455 9.51330909,27.6177455 C8.54283636,27.4949818 7.51592727,27.3373091 6.39418182,27.1441455 L1.93687273,26.3738182 C4.25425455,23.7242182 5.42778182,20.5335273 5.42778182,16.8727273 L5.42778182,11.6398545 C5.44756364,8.47767273 7.68989091,6.03287273 9.90254545,5.01236364 C10.5605818,4.70923636 11.2430545,4.48290909 11.9371636,4.32407273 C11.9429818,4.32290909 11.9493818,4.32349091 11.9552,4.32232727 C13.3888,4 14.9149091,3.98545455 16.3653818,4.28276364 C16.3729455,4.28450909 16.3805091,4.28101818 16.3880727,4.28218182 C17.1467636,4.44043636 17.8938182,4.68014545 18.6135273,5.00887273 C20.7598545,5.9904 22.9166545,8.41890909 22.8962909,11.6369455 L22.8962909,16.8733091 C22.8962909,20.3834182 24.1617455,23.6474182 26.5693091,26.3749818 L22.1149091,27.1435636 Z" id="Shape"></path>
                            <path d="M17.8885818,6.59665455 C15.6340364,5.56625455 12.8733091,5.56509091 10.6338909,6.59781818 C9.3568,7.18661818 7.19069091,8.90938182 7.17323636,11.6328727 C7.17149091,11.9540364 7.42981818,12.2158545 7.75156364,12.2181818 C7.75272727,12.2181818 7.75389091,12.2181818 7.75505455,12.2181818 C8.07447273,12.2181818 8.33512727,11.9604364 8.33687273,11.6398545 C8.35025455,9.50050909 10.0933818,8.12858182 11.1208727,7.6544 C13.0589091,6.76014545 15.4530909,6.76247273 17.4039273,7.6544 C17.696,7.78821818 18.0416,7.65963636 18.1754182,7.36756364 C18.3092364,7.07490909 18.1806545,6.72989091 17.8885818,6.59665455 Z" id="Shape"></path>
                        </g>
                    </g>
                </g>
            </g>
        </g>
    </g>
</svg>