<?xml version="1.0" encoding="UTF-8"?>
<svg width="40px" height="40px" viewBox="0 0 40 40" version="1.1" xmlns="http://www.w3.org/2000/svg" xmlns:xlink="http://www.w3.org/1999/xlink">
    <!-- Generator: Sketch 45 (43475) - http://www.bohemiancoding.com/sketch -->
    <title>translator</title>
    <desc>Created with Sketch.</desc>
    <defs></defs>
    <g id="Page-1" stroke="none" stroke-width="1" fill="none" fill-rule="evenodd">
        <g id="home" transform="translate(-517.000000, -268.000000)" fill-rule="nonzero" fill="#303E47">
            <g id="new-request" transform="translate(256.000000, 176.000000)">
                <g id="section-credits" transform="translate(0.000000, 72.000000)">
                    <g id="personal-tap" transform="translate(241.000000, 0.000000)">
                        <g id="Group">
                            <g id="translator" transform="translate(20.000000, 20.000000)">
                                <path d="M7.33333333,26.6666667 L6,26.6666667 C6,27.7693333 5.10266667,28.6666667 4,28.6666667 L4,30 C5.10266667,30 6,30.8973333 6,32 L7.33333333,32 C7.33333333,30.8973333 8.23066667,30 9.33333333,30 L9.33333333,28.6666667 C8.23066667,28.6666667 7.33333333,27.7693333 7.33333333,26.6666667 Z M6.66666667,30.0206667 C6.472,29.7586667 6.24133333,29.528 5.97933333,29.3333333 C6.24133333,29.1386667 6.472,28.908 6.66666667,28.646 C6.86133333,28.908 7.092,29.1386667 7.354,29.3333333 C7.092,29.528 6.86133333,29.7586667 6.66666667,30.0206667 Z" id="Shape"></path>
                                <path d="M38.6666667,29.3333333 L38.6666667,11.3333333 C38.6666667,5.084 33.582,0 27.3313333,0 L27,0 C20.5673333,0 15.3333333,5.234 15.3333333,11.6666667 L15.3333333,16.6666667 C15.3333333,17.0346667 15.632,17.3333333 16,17.3333333 L18,17.3333333 L18,18.6666667 C18,19.0346667 18.2986667,19.3333333 18.6666667,19.3333333 L20.5526667,19.3333333 C20.2773333,20.1093333 19.536,20.6666667 18.6666667,20.6666667 C18.2986667,20.6666667 18,20.9653333 18,21.3333333 L18,22 C18,23.838 19.4953333,25.3333333 21.3333333,25.3333333 L28,25.3333333 L28,29.3333333 L19.3333333,29.3333333 C13.8193333,29.3333333 9.33333333,33.8193333 9.33333333,39.3333333 L9.33333333,40 L10.6666667,40 L10.6666667,39.3333333 C10.6666667,34.5546667 14.5546667,30.6666667 19.3333333,30.6666667 L28.28,30.6666667 L33.4213333,39.664 C33.5406667,39.8726667 33.762,40 34,40 C34.0126667,40 34.0253333,40 34.038,39.9993333 C34.2906667,39.9846667 34.5126667,39.8286667 34.6126667,39.5966667 L38.4393333,30.6666667 L40,30.6666667 L40,29.3333333 L38.6666667,29.3333333 Z M33.9146667,37.84 L29.8153333,30.6666667 L36.9886667,30.6666667 L33.9146667,37.84 Z M37.3333333,29.3333333 L29.3333333,29.3333333 L29.3333333,24.6666667 C29.3333333,24.2986667 29.0346667,24 28.6666667,24 L21.3333333,24 C20.2306667,24 19.3333333,23.1026667 19.3333333,22 L19.3333333,21.9326667 C20.8526667,21.6233333 22,20.276 22,18.6666667 C22,18.2986667 21.7013333,18 21.3333333,18 L19.3333333,18 L19.3333333,16.6666667 C19.3333333,16.2986667 19.0346667,16 18.6666667,16 L16.6666667,16 L16.6666667,11.6666667 C16.6666667,5.96866667 21.302,1.33333333 27,1.33333333 L27.3313333,1.33333333 C32.8466667,1.33333333 37.3333333,5.81933333 37.3333333,11.3333333 L37.3333333,29.3333333 Z" id="Shape"></path>
                                <path d="M16.52,20.9166667 L14,17.766 L14,10.6666667 C14,8.82866667 12.5046667,7.33333333 10.6666667,7.33333333 L3.33333333,7.33333333 C1.49533333,7.33333333 0,8.82866667 0,10.6666667 L0,18.6666667 C0,20.5046667 1.49533333,22 3.33333333,22 L16,22 C16.256,22 16.49,21.8533333 16.6006667,21.622 C16.712,21.3913333 16.6806667,21.1166667 16.52,20.9166667 Z M3.33333333,20.6666667 C2.23066667,20.6666667 1.33333333,19.7693333 1.33333333,18.6666667 L1.33333333,10.6666667 C1.33333333,9.564 2.23066667,8.66666667 3.33333333,8.66666667 L10.6666667,8.66666667 C11.7693333,8.66666667 12.6666667,9.564 12.6666667,10.6666667 L12.6666667,18 C12.6666667,18.1513333 12.718,18.298 12.8126667,18.4166667 L14.6126667,20.6666667 L3.33333333,20.6666667 Z" id="Shape"></path>
                                <path d="M7,10.6666667 C4.61066667,10.6666667 2.66666667,12.4606667 2.66666667,14.6666667 C2.66666667,16.8726667 4.61066667,18.6666667 7,18.6666667 C9.38933333,18.6666667 11.3333333,16.8726667 11.3333333,14.6666667 C11.3333333,12.4606667 9.38933333,10.6666667 7,10.6666667 Z M4.10666667,15.3333333 L5.35466667,15.3333333 C5.38266667,15.808 5.44866667,16.4286667 5.59666667,17.0093333 C4.86666667,16.662 4.31933333,16.0606667 4.10666667,15.3333333 Z M5.35466667,14 L4.10666667,14 C4.31933333,13.2726667 4.86666667,12.6713333 5.59666667,12.324 C5.44866667,12.904 5.38266667,13.5253333 5.35466667,14 Z M7,17.0393333 C6.87266667,16.6913333 6.74333333,16.1033333 6.692,15.3333333 L7.308,15.3333333 C7.25666667,16.1033333 7.12733333,16.6913333 7,17.0393333 Z M6.692,14 C6.74333333,13.23 6.87266667,12.642 7,12.294 C7.12733333,12.642 7.25666667,13.23 7.308,14 L6.692,14 Z M8.40333333,17.0093333 C8.55133333,16.4293333 8.61733333,15.808 8.64533333,15.3333333 L9.89333333,15.3333333 C9.68066667,16.0606667 9.13333333,16.662 8.40333333,17.0093333 Z M8.64533333,14 C8.61733333,13.5253333 8.55133333,12.9046667 8.40333333,12.324 C9.13333333,12.6713333 9.68066667,13.2726667 9.89333333,14 L8.64533333,14 Z" id="Shape"></path>
                                <path d="M24.6666667,10.6666667 C24.6666667,11.7693333 23.7693333,12.6666667 22.6666667,12.6666667 C21.564,12.6666667 20.6666667,11.7693333 20.6666667,10.6666667 L19.3333333,10.6666667 C19.3333333,12.5046667 20.8286667,14 22.6666667,14 C24.5046667,14 26,12.5046667 26,10.6666667 L24.6666667,10.6666667 Z" id="Shape"></path>
                                <rect id="Rectangle-path" x="26" y="32" width="1.33333333" height="1.33333333"></rect>
                                <rect id="Rectangle-path" x="23.3333333" y="32" width="1.33333333" height="1.33333333"></rect>
                                <rect id="Rectangle-path" x="20.6666667" y="32" width="1.33333333" height="1.33333333"></rect>
                            </g>
                        </g>
                    </g>
                </g>
            </g>
        </g>
    </g>
</svg>