<?xml version="1.0" encoding="UTF-8"?>
<svg width="40px" height="39px" viewBox="0 0 40 39" version="1.1" xmlns="http://www.w3.org/2000/svg" xmlns:xlink="http://www.w3.org/1999/xlink">
    <!-- Generator: Sketch 45 (43475) - http://www.bohemiancoding.com/sketch -->
    <title>handshake</title>
    <desc>Created with Sketch.</desc>
    <defs></defs>
    <g id="Page-1" stroke="none" stroke-width="1" fill="none" fill-rule="evenodd">
        <g id="home" transform="translate(-637.000000, -269.000000)" fill-rule="nonzero" fill="#303E47">
            <g id="new-request" transform="translate(256.000000, 176.000000)">
                <g id="section-credits" transform="translate(0.000000, 72.000000)">
                    <g id="pyme" transform="translate(361.000000, 0.000000)">
                        <g id="Group">
                            <g id="handshake" transform="translate(20.000000, 21.250000)">
                                <path d="M4.99252033,9.79934959 C3.91674797,9.79934959 3.04130081,10.6747967 3.04130081,11.7505691 C3.04130081,12.8263415 3.91674797,13.7017886 4.99252033,13.7017886 C6.06829268,13.7017886 6.94373984,12.8263415 6.94373984,11.7505691 C6.94373984,10.6747967 6.06829268,9.79934959 4.99252033,9.79934959 Z M4.99252033,12.4009756 C4.63414634,12.4009756 4.34211382,12.1089431 4.34211382,11.7505691 C4.34211382,11.3921951 4.63414634,11.1001626 4.99252033,11.1001626 C5.35089431,11.1001626 5.64292683,11.3921951 5.64292683,11.7505691 C5.64292683,12.1089431 5.35089431,12.4009756 4.99252033,12.4009756 Z" id="Shape"></path>
                                <path d="M39.9239024,15.462439 L39.0042276,14.5427642 L29.6969106,23.8500813 C29.6617886,23.8104065 29.6338211,23.7655285 29.5960976,23.7271545 L24.1235772,18.2546341 L24.9645528,17.4136585 L24.044878,16.4939837 L22.1138211,18.4250407 C21.0790244,19.459187 19.4770732,19.6022764 18.284878,18.8536585 L23.0113821,14.1642276 C23.0120325,14.1635772 23.0120325,14.1629268 23.0126829,14.1622764 L35.3704065,1.80455285 L34.4507317,0.884878049 L22.5534959,12.7821138 L21.7125203,11.9411382 C21.5908943,11.8188618 21.4250407,11.7505691 21.2526829,11.7505691 L18.9203252,11.7505691 L17.8100813,10.6403252 L8.70439024,1.53463415 L7.78471545,2.45430894 L13.8289431,8.49853659 L5.5102439,16.8172358 L0.879349593,12.5720325 L0,13.5313821 L7.59414634,20.4920325 L7.59414634,22.1570732 C7.59414634,22.3294309 7.66243902,22.4952846 7.78471545,22.6169106 L10.5977236,25.4299187 C10.340813,25.7765854 10.1957724,26.1915447 10.1957724,26.6312195 C10.1957724,27.7265041 11.0686179,28.6156098 12.1541463,28.6539837 C12.1918699,29.7154472 13.0439024,30.5674797 14.1053659,30.6052033 C14.1430894,31.6666667 14.995122,32.5186992 16.0565854,32.5564228 C16.0949593,33.6419512 16.9847154,34.5147967 18.0793496,34.5147967 C18.3557724,34.5147967 18.6237398,34.4582114 18.8708943,34.3534959 L18.9203252,34.4029268 C19.4113821,34.8946341 20.0650407,35.1652033 20.7603252,35.1652033 C21.4556098,35.1652033 22.1086179,34.8946341 22.5996748,34.4029268 L29.5960976,27.4065041 C30.0878049,26.9147967 30.358374,26.2617886 30.358374,25.5671545 C30.358374,25.4006504 30.340813,25.236748 30.3102439,25.0760976 L39.9239024,15.462439 Z M6.4702439,17.6972358 L14.7486179,9.41821138 L16.4305691,11.1001626 L8.22504065,19.3056911 L6.4702439,17.6972358 Z M12.7414634,27.1469919 C12.6035772,27.2842276 12.420813,27.3603252 12.2256911,27.3603252 C11.8237398,27.3603252 11.4965854,27.0331707 11.4965854,26.6312195 C11.4965854,26.4360976 11.5726829,26.2533333 11.7099187,26.1154472 L14.8045528,23.020813 C14.942439,22.8835772 15.1252033,22.8074797 15.3203252,22.8074797 C15.7222764,22.8074797 16.0494309,23.1346341 16.0494309,23.5365854 C16.0494309,23.7317073 15.9733333,23.9144715 15.8360976,24.0523577 L12.7414634,27.1469919 Z M14.6926829,29.0982114 C14.5547967,29.2354472 14.3720325,29.3115447 14.1769106,29.3115447 C13.7749593,29.3115447 13.4478049,28.9843902 13.4478049,28.582439 C13.4478049,28.3873171 13.5239024,28.2045528 13.6611382,28.0666667 L16.7557724,24.9720325 C16.8936585,24.8347967 17.0764228,24.7586992 17.2715447,24.7586992 C17.6734959,24.7586992 18.0006504,25.0858537 18.0006504,25.4878049 C18.0006504,25.6829268 17.9245528,25.8656911 17.7873171,26.0035772 L14.6926829,29.0982114 Z M16.6439024,31.0494309 C16.5060163,31.1866667 16.323252,31.2627642 16.1281301,31.2627642 C15.7261789,31.2627642 15.3990244,30.9356098 15.3990244,30.5336585 C15.3990244,30.3385366 15.475122,30.1557724 15.6123577,30.0178862 L18.7069919,26.923252 C18.844878,26.7860163 19.0276423,26.7099187 19.2227642,26.7099187 C19.6247154,26.7099187 19.9518699,27.0370732 19.9518699,27.4390244 C19.9518699,27.6341463 19.8757724,27.8169106 19.7385366,27.9547967 L16.6439024,31.0494309 Z M18.595122,33.0006504 C18.4572358,33.1378862 18.2744715,33.2139837 18.0793496,33.2139837 C17.6773984,33.2139837 17.3502439,32.8868293 17.3502439,32.484878 C17.3502439,32.2897561 17.4263415,32.1069919 17.5635772,31.9691057 L20.6582114,28.8744715 C20.7960976,28.7372358 20.9788618,28.6611382 21.1739837,28.6611382 C21.575935,28.6611382 21.9030894,28.9882927 21.9030894,29.3902439 C21.9030894,29.5853659 21.8269919,29.7681301 21.6897561,29.9060163 L18.595122,33.0006504 Z M28.6764228,26.4868293 L21.68,33.483252 C21.2071545,33.9560976 20.4006504,33.9691057 19.902439,33.5333333 L22.6100813,30.8256911 C22.9925203,30.4426016 23.2039024,29.9326829 23.2039024,29.3902439 C23.2039024,28.2949593 22.3310569,27.4058537 21.2455285,27.3674797 C21.2078049,26.3060163 20.3557724,25.4539837 19.2943089,25.4162602 C19.2565854,24.3547967 18.4045528,23.5027642 17.3430894,23.4650407 C17.3047154,22.3795122 16.4149593,21.5066667 15.3203252,21.5066667 C14.7778862,21.5066667 14.2679675,21.7180488 13.884878,22.1011382 L11.4965854,24.4894309 L8.89495935,21.8878049 L8.89495935,20.475122 L17.3502439,12.0198374 L18.1912195,12.860813 C18.3128455,12.9830894 18.4786992,13.0513821 18.6510569,13.0513821 L20.9834146,13.0513821 L21.6318699,13.6998374 L16.8513821,18.443252 C16.7284553,18.5655285 16.6588618,18.7326829 16.6595122,18.9063415 C16.6601626,19.08 16.7297561,19.2465041 16.8533333,19.3681301 C18.563252,21.0526829 21.3365854,21.0422764 23.0334959,19.344065 L23.2039024,19.1743089 L28.6764228,24.6468293 C28.9222764,24.8926829 29.057561,25.219187 29.057561,25.5671545 C29.057561,25.915122 28.9222764,26.2409756 28.6764228,26.4868293 Z" id="Shape"></path>
                                <path d="M4.53528455,27.3206504 L3.39382114,27.9450407 C3.60780488,28.335935 3.83934959,28.7255285 4.08195122,29.1021138 L5.17593496,28.398374 C4.9495935,28.0471545 4.73430894,27.684878 4.53528455,27.3206504 Z" id="Shape"></path>
                                <path d="M13.815935,35.3642276 L13.36,36.582439 C13.7769106,36.7385366 14.2068293,36.881626 14.6386992,37.0078049 L15.0042276,35.7596748 C14.6029268,35.6419512 14.2035772,35.5092683 13.815935,35.3642276 Z" id="Shape"></path>
                                <path d="M9.42699187,32.9635772 L8.64585366,34.0042276 C9.00357724,34.2728455 9.37626016,34.5317073 9.75219512,34.7736585 L10.455935,33.6796748 C10.1060163,33.4539837 9.75934959,33.2133333 9.42699187,32.9635772 Z" id="Shape"></path>
                                <path d="M11.5349593,34.321626 L10.9105691,35.462439 C11.3021138,35.6764228 11.7073171,35.88 12.115122,36.0666667 L12.6569106,34.8842276 C12.2770732,34.7099187 11.8998374,34.5206504 11.5349593,34.321626 Z" id="Shape"></path>
                                <path d="M7.53235772,31.3206504 L6.61203252,32.2396748 C6.92813008,32.5564228 7.2598374,32.8653659 7.59739837,33.1580488 L8.4500813,32.1752846 C8.13528455,31.9027642 7.82699187,31.6146341 7.53235772,31.3206504 Z" id="Shape"></path>
                                <path d="M5.8900813,29.4266667 L4.84943089,30.2071545 C5.11869919,30.5661789 5.40292683,30.9186992 5.69430894,31.2549593 L6.67707317,30.4022764 C6.40650407,30.0894309 6.14178862,29.7609756 5.8900813,29.4266667 Z" id="Shape"></path>
                                <path d="M2.43512195,20.1609756 L1.13756098,20.2533333 C1.16878049,20.6988618 1.21691057,21.1489431 1.28,21.5918699 L2.56780488,21.4084553 C2.50926829,20.9954472 2.46439024,20.575935 2.43512195,20.1609756 Z" id="Shape"></path>
                                <path d="M1.13756098,17.5613008 C1.10569106,18.0035772 1.0900813,18.4556098 1.0900813,18.9050407 L1.0900813,18.9069919 L2.39089431,18.9050407 C2.39089431,18.4861789 2.40585366,18.0647154 2.43512195,17.6536585 L1.13756098,17.5613008 Z" id="Shape"></path>
                                <path d="M2.78894309,22.6409756 L1.51804878,22.9173984 C1.61300813,23.355122 1.72487805,23.7941463 1.8504065,24.2221138 L3.09853659,23.8565854 C2.98211382,23.4578862 2.87804878,23.0487805 2.78894309,22.6409756 Z" id="Shape"></path>
                                <path d="M3.49398374,25.044878 L2.27512195,25.5001626 C2.43121951,25.9177236 2.60422764,26.335935 2.7902439,26.742439 L3.97333333,26.2019512 C3.8003252,25.8227642 3.63902439,25.4338211 3.49398374,25.044878 Z" id="Shape"></path>
                                <path d="M35.9304065,26.2013008 C35.7560976,26.5811382 35.5668293,26.958374 35.3671545,27.323252 L36.5086179,27.9476423 C36.7226016,27.5560976 36.9261789,27.1508943 37.1128455,26.7430894 L35.9304065,26.2013008 Z" id="Shape"></path>
                                <path d="M34.7265041,28.401626 C34.5001626,28.7528455 34.2588618,29.0988618 34.0097561,29.4312195 L35.0504065,30.2123577 C35.318374,29.855935 35.5772358,29.483252 35.8204878,29.1060163 L34.7265041,28.401626 Z" id="Shape"></path>
                                <path d="M33.2214634,30.4068293 C32.9489431,30.721626 32.6614634,31.0305691 32.3668293,31.3245528 L33.2858537,32.244878 C33.6026016,31.9287805 33.9115447,31.5970732 34.2042276,31.2595122 L33.2214634,30.4068293 Z" id="Shape"></path>
                                <path d="M36.8065041,23.8533333 C36.6887805,24.2533333 36.5560976,24.6533333 36.4110569,25.0422764 L37.6292683,25.497561 C37.7860163,25.0793496 37.9284553,24.6487805 38.0546341,24.2188618 L36.8065041,23.8533333 Z" id="Shape"></path>
                                <path d="M37.3365854,21.4052033 C37.2773984,21.8188618 37.2026016,22.2338211 37.1147967,22.6390244 L38.3863415,22.9141463 C38.4806504,22.4790244 38.5606504,22.0334959 38.6237398,21.5886179 L37.3365854,21.4052033 Z" id="Shape"></path>
                                <path d="M31.4484553,32.1798374 C31.1349593,32.4517073 30.8065041,32.7164228 30.4721951,32.9674797 L31.2526829,34.0081301 C31.6110569,33.7395122 31.9635772,33.4552846 32.3004878,33.163252 L31.4484553,32.1798374 Z" id="Shape"></path>
                                <path d="M16.219187,36.0692683 L15.944065,37.3401626 C16.379187,37.4344715 16.8247154,37.5144715 17.2695935,37.577561 L17.4530081,36.2904065 C17.0393496,36.2312195 16.6243902,36.1564228 16.219187,36.0692683 Z" id="Shape"></path>
                                <path d="M37.5128455,18.9050407 C37.5128455,19.323252 37.4985366,19.7453659 37.4692683,20.158374 L38.7668293,20.2500813 C38.7980488,19.8058537 38.8136585,19.3531707 38.8136585,18.9050407 L37.5128455,18.9050407 Z" id="Shape"></path>
                                <path d="M22.4539837,36.2891057 C22.041626,36.3476423 21.6221138,36.3925203 21.2065041,36.4217886 L21.2988618,37.7193496 C21.7443902,37.6881301 22.1944715,37.64 22.6373984,37.5769106 L22.4539837,36.2891057 Z" id="Shape"></path>
                                <path d="M19.9518699,36.4660163 C19.5336585,36.4660163 19.1128455,36.4517073 18.6998374,36.422439 L18.6081301,37.72 C19.0517073,37.7512195 19.5043902,37.7668293 19.9525203,37.7668293 L19.9518699,36.4660163 Z" id="Shape"></path>
                                <path d="M29.4439024,33.6822764 C29.0952846,33.9066667 28.7330081,34.1219512 28.3668293,34.3222764 L28.9912195,35.4637398 C29.384065,35.2484553 29.7730081,35.017561 30.1476423,34.7762602 L29.4439024,33.6822764 Z" id="Shape"></path>
                                <path d="M27.2474797,34.8835772 C26.8682927,35.0565854 26.4793496,35.2185366 26.0910569,35.3629268 L26.5456911,36.5817886 C26.963252,36.4256911 27.3814634,36.2526829 27.7879675,36.0666667 L27.2474797,34.8835772 Z" id="Shape"></path>
                                <path d="M24.9021138,35.7590244 C24.5034146,35.8754472 24.0949593,35.9795122 23.6865041,36.0686179 L23.9629268,37.3395122 C24.4006504,37.2445528 24.8396748,37.1326829 25.2676423,37.0071545 L24.9021138,35.7590244 Z" id="Shape"></path>
                                <path d="M27.5388618,1.69268293 L26.9658537,2.86081301 C27.3268293,3.03772358 27.6982114,3.23739837 28.0695935,3.45398374 L28.7252033,2.3300813 C28.3265041,2.09788618 27.9271545,1.88325203 27.5388618,1.69268293 Z" id="Shape"></path>
                                <path d="M19.9518699,0.0432520325 L19.68,0.045203252 L19.6988618,1.34601626 L19.9518699,1.34406504 C20.2952846,1.34406504 20.6308943,1.35186992 20.9586992,1.36747967 L21.0198374,0.0679674797 C20.6718699,0.0517073171 20.316748,0.0432520325 19.9518699,0.0432520325 Z" id="Shape"></path>
                                <path d="M25.0146341,0.708617886 L24.6497561,1.95739837 C25.043252,2.07252033 25.4386992,2.20715447 25.8250407,2.35804878 L26.299187,1.14699187 C25.8770732,0.981788618 25.4452033,0.834796748 25.0146341,0.708617886 Z" id="Shape"></path>
                                <path d="M22.3603252,0.176585366 L22.2094309,1.46829268 C22.6295935,1.51772358 23.0445528,1.58276423 23.4426016,1.66211382 L23.6962602,0.38601626 C23.2650407,0.300162602 22.8156098,0.229918699 22.3603252,0.176585366 Z" id="Shape"></path>
                                <path d="M13.1037398,1.32455285 C12.6868293,1.48715447 12.2712195,1.66666667 11.8679675,1.85853659 L12.4253659,3.03382114 C12.8013008,2.85560976 13.1889431,2.68780488 13.5772358,2.53626016 L13.1037398,1.32455285 Z" id="Shape"></path>
                                <path d="M15.6760976,0.530406504 C15.2396748,0.631869919 14.8019512,0.749593496 14.375935,0.881626016 L14.7603252,2.12455285 C15.1564228,2.00162602 15.5635772,1.89170732 15.9700813,1.79739837 L15.6760976,0.530406504 Z" id="Shape"></path>
                                <path d="M18.3356098,0.111544715 C17.8887805,0.149918699 17.4386992,0.203902439 16.998374,0.273495935 L17.2013008,1.55869919 C17.6104065,1.49365854 18.0292683,1.44292683 18.4455285,1.40780488 L18.3356098,0.111544715 Z" id="Shape"></path>
                            </g>
                        </g>
                    </g>
                </g>
            </g>
        </g>
    </g>
</svg>