<?xml version="1.0" encoding="UTF-8"?>
<svg width="24px" height="32px" viewBox="0 0 24 32" version="1.1" xmlns="http://www.w3.org/2000/svg" xmlns:xlink="http://www.w3.org/1999/xlink">
    <!-- Generator: Sketch 45 (43475) - http://www.bohemiancoding.com/sketch -->
    <title>requests</title>
    <desc>Created with Sketch.</desc>
    <defs></defs>
    <g id="Page-1" stroke="none" stroke-width="1" fill="none" fill-rule="evenodd">
        <g id="upload-files" transform="translate(-40.000000, -480.000000)">
            <g id="nav-bar">
                <g id="requests" transform="translate(36.000000, 480.000000)">
                    <g id="script" transform="translate(4.000000, 0.000000)" fill-rule="nonzero" fill="#000000">
                        <path d="M22.5590204,4.49952653 L21.0674939,4.49116735 C21.0665143,4.49116735 21.0656,4.49116735 21.0646204,4.49116735 C21.0618122,4.49116735 21.0591347,4.49155918 21.0563918,4.49155918 L21.0563918,3.49955918 C21.0563918,3.2234449 20.8325878,2.99957551 20.5564735,2.99957551 L19.0566531,2.99957551 L19.0566531,1.99980408 C19.0566531,1.7236898 18.832849,1.49988571 18.5567347,1.49988571 L6.11069388,1.49988571 C6.04708571,0.662204082 5.34569796,0 4.49208163,0 C3.6384,0 2.93707755,0.662204082 2.87346939,1.49982041 L0.558628571,1.49982041 C0.282514286,1.49982041 0.0587102041,1.72362449 0.0587102041,1.99973878 L0.0587102041,27.4969469 C0.0587102041,27.7730612 0.282514286,27.9968653 0.558628571,27.9968653 L1.55846531,27.9968653 L1.55846531,29.4966857 C1.55846531,29.7728 1.78226939,29.9966041 2.05838367,29.9966041 L3.05828571,29.9966041 L3.05828571,31.4964245 C3.05828571,31.7725388 3.2820898,31.9963429 3.55820408,31.9963429 L22.5561469,31.9963429 C22.8322612,31.9963429 23.0560653,31.7725388 23.0560653,31.4964245 L23.0560653,4.9994449 C23.0561959,4.72444082 22.8340898,4.50102857 22.5590204,4.49952653 Z M4.49208163,0.999902041 C4.79366531,0.999902041 5.04587755,1.21502041 5.10354286,1.49982041 L3.88062041,1.49982041 C3.93822041,1.21502041 4.19043265,0.999902041 4.49208163,0.999902041 Z M1.05861224,26.9970286 L1.05861224,2.49972245 L2.8683102,2.49972245 L2.8683102,6.11918367 C2.8683102,7.01459592 3.59673469,7.74302041 4.49208163,7.74302041 C5.38749388,7.74302041 6.11585306,7.01453061 6.11585306,6.11918367 L6.11585306,3.87147755 C6.11585306,3.59536327 5.89204898,3.37155918 5.61586939,3.37155918 C5.3397551,3.37155918 5.11595102,3.59536327 5.11595102,3.87147755 L5.11595102,6.11918367 C5.11595102,6.46321633 4.83604898,6.74311837 4.49201633,6.74311837 C4.14798367,6.74311837 3.86814694,6.46321633 3.86814694,6.11918367 L3.86814694,2.49972245 L18.0566204,2.49972245 L18.0566204,26.9970286 L1.05861224,26.9970286 Z M2.55830204,28.9968327 L2.55830204,27.9969306 L2.55836735,27.9969306 L18.5566041,27.9969306 C18.8327184,27.9969306 19.0565224,27.7731265 19.0565224,27.4970122 L19.0565224,3.99954286 L20.0564245,3.99954286 L20.0564245,28.9968327 L2.55830204,28.9968327 Z M4.05825306,30.9966367 L4.05825306,29.9967347 L20.5564082,29.9967347 C20.8325224,29.9967347 21.0563265,29.7729306 21.0563265,29.4968163 L21.0563265,5.49080816 C21.0582204,5.49087347 21.0599837,5.49113469 21.0618776,5.49113469 L22.0562286,5.49668571 L22.0562286,30.9966367 L4.05825306,30.9966367 Z" id="Shape"></path>
                        <path d="M13.0573061,10.9987918 L6.05792653,10.9987918 C5.78181224,10.9987918 5.55794286,11.2225959 5.55794286,11.4987755 C5.55800816,11.7748245 5.78181224,11.9986939 6.05792653,11.9986939 L13.0573061,11.9986939 C13.3334204,11.9986939 13.5572245,11.7748898 13.5572245,11.4987755 C13.5572245,11.2226612 13.3334204,10.9987918 13.0573061,10.9987918 Z" id="Shape"></path>
                        <path d="M13.0573061,12.9985959 L6.05792653,12.9985959 C5.78181224,12.9985959 5.55794286,13.2224 5.55794286,13.4985796 C5.55800816,13.7746286 5.78181224,13.998498 6.05792653,13.998498 L13.0573061,13.998498 C13.3334204,13.998498 13.5572245,13.7746939 13.5572245,13.4985796 C13.5572245,13.2224653 13.3334204,12.9985959 13.0573061,12.9985959 Z" id="Shape"></path>
                        <path d="M11.0574367,14.9983347 L8.05773061,14.9983347 C7.78161633,14.9983347 7.55781224,15.2221388 7.55781224,15.4983184 C7.55781224,15.7744327 7.78161633,15.9982367 8.05773061,15.9982367 L11.0574367,15.9982367 C11.333551,15.9982367 11.5573551,15.7744327 11.5573551,15.4983184 C11.5573551,15.2222041 11.3336163,14.9983347 11.0574367,14.9983347 Z" id="Shape"></path>
                    </g>
                    <rect id="Rectangle-4" x="0" y="0" width="32" height="32"></rect>
                </g>
            </g>
        </g>
    </g>
</svg>