<?xml version="1.0" encoding="UTF-8"?>
<svg width="32px" height="32px" viewBox="0 0 32 32" version="1.1" xmlns="http://www.w3.org/2000/svg" xmlns:xlink="http://www.w3.org/1999/xlink">
    <!-- Generator: Sketch 45 (43475) - http://www.bohemiancoding.com/sketch -->
    <title>settings</title>
    <desc>Created with Sketch.</desc>
    <defs></defs>
    <g id="Page-1" stroke="none" stroke-width="1" fill="none" fill-rule="evenodd">
        <g id="upload-files" transform="translate(-36.000000, -912.000000)" fill-rule="nonzero" fill="#000000">
            <g id="nav-bar">
                <g id="settings" transform="translate(36.000000, 912.000000)">
                    <path d="M30.3525926,12.4444444 L27.3588148,12.4444444 C26.8776296,12.4444444 26.4811852,12.1795556 26.2968889,11.7351111 C26.1125926,11.2906667 26.2062222,10.8225185 26.5457778,10.4823704 L28.6625185,8.36622222 C28.9736296,8.05511111 29.1448889,7.64088889 29.1448889,7.20118519 C29.1448889,6.76088889 28.9736296,6.34725926 28.6625185,6.03555556 L25.9644444,3.33748148 C25.3422222,2.71525926 24.2571852,2.71407407 23.6337778,3.33748148 L21.5176296,5.45362963 C21.1774815,5.79318519 20.7081481,5.888 20.2648889,5.70311111 C19.8204444,5.51881481 19.5555556,5.12237037 19.5555556,4.64118519 L19.5555556,1.64740741 C19.5555556,0.738962963 18.8165926,0 17.9081481,0 L14.0918519,0 C13.1834074,0 12.4444444,0.738962963 12.4444444,1.64740741 L12.4444444,4.64118519 C12.4444444,5.12237037 12.1795556,5.51881481 11.7351111,5.70311111 C11.2918519,5.88859259 10.8225185,5.79318519 10.4823704,5.45362963 L8.36622222,3.33748148 C7.74281481,2.71407407 6.65777778,2.71525926 6.03555556,3.33748148 L3.33748148,6.03555556 C3.02637037,6.34666667 2.85511111,6.76088889 2.85511111,7.20118519 C2.85511111,7.64088889 3.02637037,8.05451852 3.33748148,8.36622222 L5.45422222,10.4823704 C5.79377778,10.8225185 5.88681481,11.2906667 5.70311111,11.7351111 C5.51940741,12.1795556 5.12237037,12.4444444 4.64118519,12.4444444 L1.64740741,12.4444444 C0.738962963,12.4444444 0,13.1834074 0,14.0918519 L0,17.9075556 C0,18.8165926 0.738962963,19.5555556 1.64740741,19.5555556 L4.64118519,19.5555556 C5.12237037,19.5555556 5.51881481,19.8204444 5.70311111,20.2648889 C5.88740741,20.7093333 5.79377778,21.1774815 5.45422222,21.5176296 L3.33748148,23.6337778 C3.02637037,23.9448889 2.85511111,24.3591111 2.85511111,24.7988148 C2.85511111,25.2391111 3.02637037,25.6527407 3.33748148,25.9644444 L6.03555556,28.6625185 C6.65837037,29.2853333 7.74281481,29.2865185 8.36622222,28.6625185 L10.4823704,26.5457778 C10.8225185,26.2062222 11.2900741,26.1125926 11.7351111,26.2968889 C12.1795556,26.4811852 12.4444444,26.8776296 12.4444444,27.3588148 L12.4444444,30.3525926 C12.4444444,31.261037 13.1834074,32 14.0918519,32 L17.9075556,32 C18.816,32 19.554963,31.261037 19.554963,30.3525926 L19.554963,27.3588148 C19.554963,26.8776296 19.8198519,26.4811852 20.2642963,26.2968889 C20.7093333,26.112 21.1768889,26.2062222 21.517037,26.5457778 L23.6331852,28.6625185 C24.2565926,29.2859259 25.3416296,29.2847407 25.9638519,28.6625185 L28.6619259,25.9644444 C28.973037,25.6533333 29.1442963,25.2391111 29.1442963,24.7988148 C29.1442963,24.3591111 28.973037,23.9454815 28.6619259,23.6337778 L26.5451852,21.5176296 C26.2056296,21.1774815 26.1125926,20.7093333 26.2962963,20.2648889 C26.48,19.8204444 26.8776296,19.5555556 27.3588148,19.5555556 L30.3525926,19.5555556 C31.261037,19.5555556 32,18.8165926 32,17.9081481 L32,14.0918519 C32,13.1834074 31.261037,12.4444444 30.3525926,12.4444444 Z M30.8148148,17.9081481 C30.8148148,18.162963 30.6074074,18.3703704 30.3525926,18.3703704 L27.3588148,18.3703704 C26.3964444,18.3703704 25.5697778,18.9226667 25.2017778,19.8115556 C24.8331852,20.7004444 25.026963,21.6758519 25.7078519,22.3561481 L27.8245926,24.4722963 C28.0053333,24.653037 28.0053333,24.9463704 27.8245926,25.1265185 L25.1265185,27.8245926 C24.9463704,28.0047407 24.653037,28.0059259 24.4722963,27.8245926 L22.3561481,25.7078519 C21.6752593,25.026963 20.7004444,24.8343704 19.8115556,25.2017778 C18.9226667,25.5697778 18.3703704,26.3964444 18.3703704,27.3588148 L18.3703704,30.3525926 C18.3703704,30.6074074 18.162963,30.8148148 17.9081481,30.8148148 L14.0918519,30.8148148 C13.837037,30.8148148 13.6296296,30.6074074 13.6296296,30.3525926 L13.6296296,27.3588148 C13.6296296,26.3964444 13.0773333,25.5697778 12.1884444,25.2017778 C11.8903704,25.0779259 11.5834074,25.0174815 11.28,25.0174815 C10.6791111,25.0174815 10.0965926,25.2545185 9.64385185,25.7072593 L7.5277037,27.824 C7.34637037,28.0053333 7.05303704,28.0041481 6.87348148,27.824 L4.17540741,25.1259259 C3.99466667,24.9451852 3.99466667,24.6518519 4.17540741,24.4717037 L6.29214815,22.3555556 C6.97244444,21.6752593 7.16681481,20.6998519 6.79822222,19.810963 C6.43022222,18.9226667 5.60355556,18.3703704 4.64118519,18.3703704 L1.64740741,18.3703704 C1.39259259,18.3703704 1.18518519,18.162963 1.18518519,17.9081481 L1.18518519,14.0918519 C1.18518519,13.837037 1.39259259,13.6296296 1.64740741,13.6296296 L4.64118519,13.6296296 C5.60355556,13.6296296 6.43022222,13.0773333 6.79822222,12.1884444 C7.16681481,11.2995556 6.97303704,10.3241481 6.29214815,9.64385185 L4.17540741,7.5277037 C3.99466667,7.34696296 3.99466667,7.05362963 4.17540741,6.87348148 L6.87348148,4.17540741 C7.05362963,3.99466667 7.34696296,3.99466667 7.5277037,4.17540741 L9.64385185,6.29155556 C10.3235556,6.97125926 11.2983704,7.16622222 12.1884444,6.79762963 C13.0773333,6.43022222 13.6296296,5.60355556 13.6296296,4.64118519 L13.6296296,1.64740741 C13.6296296,1.39259259 13.837037,1.18518519 14.0918519,1.18518519 L17.9075556,1.18518519 C18.162963,1.18518519 18.3703704,1.39259259 18.3703704,1.64740741 L18.3703704,4.64118519 C18.3703704,5.60355556 18.9226667,6.43022222 19.8115556,6.79822222 C20.7016296,7.16681481 21.6758519,6.97244444 22.3561481,6.29214815 L24.4722963,4.176 C24.6536296,3.99525926 24.946963,3.99525926 25.1265185,4.176 L27.8245926,6.87407407 C28.0053333,7.05481481 28.0053333,7.34814815 27.8245926,7.5282963 L25.7078519,9.64444444 C25.0275556,10.3247407 24.8331852,11.3001481 25.2017778,12.189037 C25.5697778,13.0779259 26.3964444,13.6302222 27.3588148,13.6302222 L30.3525926,13.6302222 C30.6074074,13.6296296 30.8148148,13.837037 30.8148148,14.0918519 L30.8148148,17.9081481 Z" id="Shape"></path>
                    <path d="M16,10.6666667 C13.058963,10.6666667 10.6666667,13.058963 10.6666667,16 C10.6666667,18.941037 13.058963,21.3333333 16,21.3333333 C18.941037,21.3333333 21.3333333,18.941037 21.3333333,16 C21.3333333,13.058963 18.941037,10.6666667 16,10.6666667 Z M16,20.1481481 C13.7131852,20.1481481 11.8518519,18.2868148 11.8518519,16 C11.8518519,13.7131852 13.7131852,11.8518519 16,11.8518519 C18.2868148,11.8518519 20.1481481,13.7131852 20.1481481,16 C20.1481481,18.2868148 18.2868148,20.1481481 16,20.1481481 Z" id="Shape"></path>
                </g>
            </g>
        </g>
    </g>
</svg>