<?xml version="1.0" encoding="UTF-8"?>
<svg width="13px" height="16px" viewBox="0 0 13 16" version="1.1" xmlns="http://www.w3.org/2000/svg" xmlns:xlink="http://www.w3.org/1999/xlink">
    <!-- Generator: Sketch 45 (43475) - http://www.bohemiancoding.com/sketch -->
    <title>Tooltip</title>
    <desc>Created with Sketch.</desc>
    <defs></defs>
    <g id="Page-1" stroke="none" stroke-width="1" fill="none" fill-rule="evenodd">
        <g id="form-process1" transform="translate(-820.000000, -1072.000000)">
            <g id="form" transform="translate(256.000000, 744.000000)">
                <g id="Tooltip" transform="translate(562.000000, 328.000000)">
                    <g id="Group-2">
                        <g id="information" transform="translate(2.000000, 0.000000)" fill-rule="nonzero">
                            <path d="M8.5602807,0 L3.60442885,0 C1.62760234,0 0.0252319688,1.60240156 0.0252319688,3.57922807 L0.0252319688,8.53507992 C0.0252319688,10.5119064 1.62763353,12.114308 3.60446004,12.114308 L4.50891228,12.114308 C4.92163743,12.114308 5.25642105,12.4490916 5.25642105,12.8618168 L5.25642105,15.5850604 C5.25642105,15.9597661 5.73794932,16.1125926 5.95408967,15.8066901 L7.64762573,13.4072515 C8.14100585,12.7084912 8.85520468,12.2040702 9.66849123,11.9394932 C11.1029396,11.4728109 12.13954,10.1250994 12.13954,8.53511111 L12.13954,3.57922807 C12.1395088,1.60240156 10.5371072,0 8.5602807,0" id="Shape" fill="#F5A623"></path>
                            <g id="Group" transform="translate(4.678363, 1.621832)" fill="#FFFFFF">
                                <path d="M2.22995712,7.73919688 L2.22995712,3.88466277 L2.22995712,3.33539181 C2.22995712,3.03061209 1.98272125,2.78337622 1.67794152,2.78337622 L0.57802729,2.78337622 C0.273777778,2.78337622 0.0273840156,3.02980117 0.0273840156,3.33401949 C0.0273840156,3.63823782 0.273808967,3.88466277 0.57802729,3.88466277 L1.12867057,3.88466277 L1.12867057,7.73919688 L0.57802729,7.73919688 C0.273777778,7.73919688 0.0273840156,7.98562183 0.0273840156,8.28984016 C0.0273840156,8.59405848 0.273808967,8.84048343 0.57802729,8.84048343 L2.78063158,8.84048343 C3.0848499,8.84048343 3.33127485,8.59405848 3.33127485,8.28984016 C3.33127485,7.98562183 3.0848499,7.73919688 2.78063158,7.73919688 L2.22995712,7.73919688 L2.22995712,7.73919688 Z" id="Shape"></path>
                                <path d="M2.22995712,0.856077973 C2.22995712,0.399875244 1.86021053,0.0300974659 1.40397661,0.0300974659 C0.94774269,0.0300974659 0.577996101,0.399844055 0.577996101,0.856077973 C0.577996101,1.31231189 0.94774269,1.68205848 1.40397661,1.68205848 C1.86021053,1.68205848 2.22995712,1.31231189 2.22995712,0.856077973" id="Shape"></path>
                            </g>
                        </g>
                        <rect id="Rectangle-7" x="0" y="0" width="16" height="16"></rect>
                    </g>
                </g>
            </g>
        </g>
    </g>
</svg>