<?xml version="1.0" encoding="UTF-8"?>
<svg width="56px" height="56px" viewBox="0 0 56 56" version="1.1" xmlns="http://www.w3.org/2000/svg" xmlns:xlink="http://www.w3.org/1999/xlink">
    <!-- Generator: Sketch 45 (43475) - http://www.bohemiancoding.com/sketch -->
    <title>Validated</title>
    <desc>Created with Sketch.</desc>
    <defs></defs>
    <g id="Page-1" stroke="none" stroke-width="1" fill="none" fill-rule="evenodd">
        <g id="form-process3_denied" transform="translate(-753.000000, -418.000000)">
            <g id="succesfull" transform="translate(256.000000, 338.000000)">
                <g id="Validated" transform="translate(497.000000, 80.000000)">
                    <g id="guarantee" transform="translate(17.000000, 11.000000)"></g>
                    <rect id="Rectangle" x="0" y="0" width="56" height="56"></rect>
                    <g id="padlock" fill-rule="nonzero">
                        <circle id="Oval" fill="#EA5455" cx="29.9175342" cy="24.3413973" r="12.5856164"></circle>
                        <path d="M43.8666667,44.8 L43.8666667,48.1469333 L40.3498667,44.6301333 C42.0233333,41.5762667 42.9333333,38.2806667 42.9333333,34.9048 L42.9333333,34.5333333 L44.8,34.5333333 L44.8,32.6666667 L42.9333333,32.6666667 L42.9333333,24.2666667 C42.9333333,23.7514667 42.5161333,23.3333333 42,23.3333333 L35.4666667,23.3333333 L35.4666667,17.7333333 C35.4666667,17.2181333 35.0494667,16.8 34.5333333,16.8 L31.7333333,16.8 L31.7333333,14 C31.7333333,6.2804 25.4529333,0 17.7333333,0 C10.0137333,0 3.73333333,6.2804 3.73333333,14 L3.73333333,16.8 L0.933333333,16.8 C0.4172,16.8 0,17.2181333 0,17.7333333 L0,24.2666667 L0,28.9333333 L0,33.6 L0,38.2666667 L0,42.9333333 L0,45.7333333 C0,48.3065333 2.09346667,50.4 4.66666667,50.4 L20.034,50.4 C22.1312,52.4813333 24.6568,54.3405333 27.5613333,55.8898667 C27.6985333,55.9636 27.8488,56 28,56 C28.1512,56 28.3014667,55.9636 28.4396,55.8898667 C33.1501333,53.3773333 36.8638667,50.0518667 39.3577333,46.2765333 L42.5469333,49.4666667 L39.2,49.4666667 L39.2,51.3333333 L44.8,51.3333333 C45.3161333,51.3333333 45.7333333,50.9152 45.7333333,50.4 L45.7333333,44.8 L43.8666667,44.8 Z M5.6,14 C5.6,7.30986667 11.0432,1.86666667 17.7333333,1.86666667 C24.4234667,1.86666667 29.8666667,7.30986667 29.8666667,14 L29.8666667,16.8 L27.0666667,16.8 L27.0666667,14 C27.0666667,8.8536 22.8797333,4.66666667 17.7333333,4.66666667 C12.5869333,4.66666667 8.4,8.8536 8.4,14 L8.4,16.8 L5.6,16.8 L5.6,14 Z M25.2,14 L25.2,16.8 L10.2666667,16.8 L10.2666667,14 C10.2666667,9.88306667 13.6164,6.53333333 17.7333333,6.53333333 C21.8502667,6.53333333 25.2,9.88306667 25.2,14 Z M1.86666667,25.2 L7.46666667,25.2 L7.46666667,28 L1.86666667,28 L1.86666667,25.2 Z M1.86666667,29.8666667 L7.46666667,29.8666667 L7.46666667,32.6666667 L1.86666667,32.6666667 L1.86666667,29.8666667 Z M1.86666667,34.5333333 L7.46666667,34.5333333 L7.46666667,37.3333333 L1.86666667,37.3333333 L1.86666667,34.5333333 Z M1.86666667,39.2 L7.46666667,39.2 L7.46666667,42 L1.86666667,42 L1.86666667,39.2 Z M4.66666667,48.5333333 C3.12293333,48.5333333 1.86666667,47.2770667 1.86666667,45.7333333 L1.86666667,43.8666667 L8.4,43.8666667 C8.91613333,43.8666667 9.33333333,43.4485333 9.33333333,42.9333333 L9.33333333,38.2666667 L9.33333333,33.6 L9.33333333,28.9333333 L9.33333333,24.2666667 C9.33333333,23.7514667 8.91613333,23.3333333 8.4,23.3333333 L1.86666667,23.3333333 L1.86666667,18.6666667 L33.6,18.6666667 L33.6,23.3333333 L14,23.3333333 C13.4838667,23.3333333 13.0666667,23.7514667 13.0666667,24.2666667 L13.0666667,34.9048 C13.0666667,39.7786667 14.9473333,44.4892 18.3269333,48.5333333 L4.66666667,48.5333333 Z M28,54.0045333 C19.8081333,49.4797333 14.9333333,42.3705333 14.9333333,34.9048 L14.9333333,25.2 L41.0666667,25.2 L41.0666667,32.6666667 L39.2,32.6666667 L39.2,28 C39.2,27.4848 38.7828,27.0666667 38.2666667,27.0666667 L17.7333333,27.0666667 C17.2172,27.0666667 16.8,27.4848 16.8,28 L16.8,33.1053333 C16.8,40.6606667 20.9206667,47.6018667 27.5529333,51.2194667 C27.692,51.2950667 27.846,51.3333333 28,51.3333333 C28.154,51.3333333 28.308,51.2950667 28.4470667,51.2194667 C31.8546667,49.3612 34.5930667,46.6209333 36.456,43.3757333 L38.0072,44.9269333 C35.7606667,48.4586667 32.3558667,51.5993333 28,54.0045333 Z M28,32.6666667 C27.6229333,32.6666667 27.2813333,32.8944 27.1376,33.2425333 C26.9929333,33.5916 27.0732,33.9929333 27.3401333,34.2598667 L35.0821333,42.0018667 C33.4656,45.0025333 31.0445333,47.5598667 28,49.3294667 C22.2292,45.976 18.6666667,39.8066667 18.6666667,33.1062667 L18.6666667,28.9333333 L37.3333333,28.9333333 L37.3333333,32.6666667 L28,32.6666667 Z M37.2745333,34.5333333 C37.1242667,36.5092 36.6669333,38.4234667 35.9342667,40.2136 L30.2530667,34.5333333 L37.2745333,34.5333333 Z M38.9741333,43.2534667 L37.3482667,41.6276 C38.3525333,39.4146667 38.9788,37.0197333 39.1505333,34.5324 L41.0666667,34.5324 L41.0666667,34.9048 C41.0666667,37.7841333 40.3349333,40.6084 38.9741333,43.2534667 Z" id="Shape" fill="#2B3B46"></path>
                        <rect id="Rectangle-path" fill="#000000" x="46.6666667" y="32.6666667" width="1.86666667" height="1.86666667"></rect>
                        <rect id="Rectangle-path" fill="#000000" x="50.4" y="32.6666667" width="1.86666667" height="1.86666667"></rect>
                        <rect id="Rectangle-path" fill="#000000" x="54.1333333" y="32.6666667" width="1.86666667" height="1.86666667"></rect>
                        <rect id="Rectangle-path" fill="#000000" x="50.4" y="7.46666667" width="1.86666667" height="1.86666667"></rect>
                        <rect id="Rectangle-path" fill="#000000" x="54.1333333" y="7.46666667" width="1.86666667" height="1.86666667"></rect>
                        <path d="M54.1333333,16.8 L43.3197333,16.8 L45.4598667,14.6598667 L44.1401333,13.3401333 L40.4068,17.0734667 C40.0418667,17.4384 40.0418667,18.0282667 40.4068,18.3932 L44.1401333,22.1265333 L45.4598667,20.8068 L43.3197333,18.6666667 L54.1333333,18.6666667 L54.1333333,16.8 Z" id="Shape" fill="#2B3B46"></path>
                        <path d="M56,25.2 L47.9864,25.2 L50.1265333,23.0598667 L48.8068,21.7401333 L45.0734667,25.4734667 C44.7085333,25.8384 44.7085333,26.4282667 45.0734667,26.7932 L48.8068,30.5265333 L50.1265333,29.2068 L47.9864,27.0666667 L56,27.0666667 L56,25.2 Z" id="Shape" fill="#2B3B46"></path>
                        <path d="M48.5333333,7.46666667 L37.7197333,7.46666667 L39.8598667,5.32653333 L38.5401333,4.0068 L34.8068,7.74013333 C34.4418667,8.10506667 34.4418667,8.69493333 34.8068,9.05986667 L38.5401333,12.7932 L39.8598667,11.4734667 L37.7197333,9.33333333 L48.5333333,9.33333333 L48.5333333,7.46666667 Z" id="Shape" fill="#2B3B46"></path>
                    </g>
                </g>
            </g>
        </g>
    </g>
</svg>