<?xml version="1.0" encoding="UTF-8"?>
<svg width="32px" height="32px" viewBox="0 0 32 32" version="1.1" xmlns="http://www.w3.org/2000/svg" xmlns:xlink="http://www.w3.org/1999/xlink">
    <!-- Generator: Sketch 45 (43475) - http://www.bohemiancoding.com/sketch -->
    <title>piece-of-paper-and-pencil</title>
    <desc>Created with Sketch.</desc>
    <defs></defs>
    <g id="Page-1" stroke="none" stroke-width="1" fill="none" fill-rule="evenodd">
        <g id="form-process3" transform="translate(-830.000000, -594.000000)">
            <g id="succesfull" transform="translate(256.000000, 338.000000)">
                <g id="user-folio" transform="translate(442.000000, 256.000000)">
                    <g id="piece-of-paper-and-pencil" transform="translate(132.000000, 0.000000)">
                        <rect id="Rectangle-7" x="0" y="0" width="32" height="32"></rect>
                        <path d="M31.30712,10.50384 L28.9464,8.14304 C28.94608,8.14272 28.94592,8.1424 28.9456,8.14216 C28.94528,8.14192 28.94496,8.14168 28.94472,8.14144 L26.58392,5.78056 C26.39648,5.59304 26.14216,5.48768 25.8768,5.48768 C25.61144,5.48768 25.3572,5.59304 25.16968,5.78056 L24.00248,6.94776 L24.00248,1 C24.00248,0.44776 23.55464,0 23.00248,0 L1,0 C0.44776,0 0,0.44776 0,1 L0,30.9736 C0,31.52584 0.44776,31.9736 1,31.9736 L23.00256,31.9736 C23.55472,31.9736 24.00256,31.52584 24.00256,30.9736 L24.00256,19.22232 L31.30712,11.918 C31.69768,11.52752 31.69768,10.8944 31.30712,10.50384 Z M22.00256,29.9736 L2,29.9736 L2,2 L22.00256,2 L22.00256,8.94776 L13.73904,17.21112 C13.60096,17.34936 13.5064,17.52488 13.46688,17.71608 L12.23816,23.66808 C12.17008,23.99776 12.27248,24.33952 12.5104,24.57736 C12.69984,24.7668 12.95504,24.87024 13.21752,24.87024 C13.2848,24.87024 13.35256,24.86344 13.41968,24.8496 L19.37136,23.62064 C19.5628,23.5812 19.73824,23.48648 19.87632,23.3484 L22.00248,21.22232 L22.00248,29.9736 L22.00256,29.9736 Z M15.05064,19.9368 L17.1508,22.03704 L14.50424,22.58352 L15.05064,19.9368 Z M19.16928,21.22712 L15.86048,17.91832 L25.87688,7.90192 L26.82424,8.84936 L20.71544,14.95832 C20.3248,15.34888 20.3248,15.982 20.71544,16.37256 C20.91056,16.56768 21.16664,16.66544 21.42256,16.66544 C21.67848,16.66544 21.93432,16.56768 22.12968,16.37256 L28.23856,10.26368 L29.18592,11.21104 L19.16928,21.22712 Z" id="Shape" fill="#3CAFCA" fill-rule="nonzero"></path>
                    </g>
                </g>
            </g>
        </g>
    </g>
</svg>