<?xml version="1.0" encoding="UTF-8"?>
<svg width="49px" height="56px" viewBox="0 0 49 56" version="1.1" xmlns="http://www.w3.org/2000/svg" xmlns:xlink="http://www.w3.org/1999/xlink">
    <!-- Generator: Sketch 45 (43475) - http://www.bohemiancoding.com/sketch -->
    <title>Validated</title>
    <desc>Created with Sketch.</desc>
    <defs></defs>
    <g id="Page-1" stroke="none" stroke-width="1" fill="none" fill-rule="evenodd">
        <g id="form-process3" transform="translate(-751.000000, -418.000000)">
            <g id="succesfull" transform="translate(256.000000, 338.000000)">
                <g id="Validated" transform="translate(491.000000, 80.000000)">
                    <g id="guarantee" transform="translate(4.000000, 0.000000)" fill-rule="nonzero">
                        <circle id="Oval" fill="#3CAFCA" cx="27.9175342" cy="24.3413973" r="12.5856164"></circle>
                        <path d="M46.5900822,3.66512329 C40.2793425,3.66512329 34.1097534,2.47665753 28.252,0.134054795 L27.9175342,0 L27.5840274,0.133863014 C21.7255068,2.47665753 15.555726,3.66493151 9.2449863,3.66493151 L7.24106849,3.66493151 L7.24106849,22.5434521 L2.74630137,22.5434521 C1.25942466,22.5434521 0.0494794521,23.7533973 0.0494794521,25.240274 L0.0494794521,40.5229041 C0.0494794521,42.0097808 1.25942466,43.2199178 2.74630137,43.2199178 L10.8369589,43.2199178 C10.8386849,43.2199178 10.8396438,43.2199178 10.8413699,43.2199178 C12.9647671,46.593726 15.9070685,49.3804932 19.4149315,51.2927397 L27.9173425,55.9305753 L36.4197534,51.2927397 C43.9296986,47.1970685 48.5936164,39.3390411 48.5936164,30.7854247 L48.5936164,3.66512329 L46.5900822,3.66512329 Z M1.84723288,40.5229041 L1.84723288,25.240274 C1.84723288,24.7449041 2.2499726,24.3413973 2.74610959,24.3413973 L10.8367671,24.3413973 C11.3329041,24.3413973 11.7356438,24.7450959 11.7356438,25.240274 L11.7356438,40.5229041 C11.7356438,41.018274 11.3329041,41.4219726 10.8367671,41.4219726 L2.74630137,41.4219726 C2.2499726,41.4219726 1.84723288,41.018274 1.84723288,40.5229041 Z M13.5339726,27.0303562 C16.535726,26.867726 18.9278082,24.3738082 18.9278082,21.3327397 L18.9278082,16.700274 C18.9278082,15.4615616 19.9356164,14.4527945 21.1752877,14.4527945 C22.4149589,14.4527945 23.4227671,15.4613699 23.4227671,16.700274 L23.4227671,22.3583836 C23.4227671,23.9476712 24.7155616,25.2404658 26.3048493,25.2404658 L32.8952055,25.2404658 C34.6112603,25.2404658 36.0083836,26.6366301 36.0083836,28.3536438 L36.0083836,38.3087945 C36.0083836,40.0258082 34.6114521,41.4219726 32.8952055,41.4219726 L19.6496712,41.4219726 C18.935863,41.4219726 18.2742192,41.0667945 17.8778082,40.4736164 C17.1478904,39.3787397 15.9260548,38.7251507 14.6100548,38.7251507 L13.5339726,38.7251507 L13.5339726,27.0303562 L13.5339726,27.0303562 Z M46.795863,30.7852329 C46.795863,38.6800822 42.4907671,45.9338082 35.5596164,49.714 L27.9175342,53.8825479 L20.2754521,49.714 C17.1478904,48.007726 14.5049589,45.5508219 12.5614521,42.5787945 C13.1070685,42.1202466 13.4658904,41.4551507 13.516137,40.6999178 C15.3301918,43.8292055 17.9426301,46.3931233 21.1367397,48.1352603 L27.917726,51.8345205 L34.6987123,48.1352603 C41.0518356,44.6705479 44.9983014,38.0226575 44.9983014,30.786 L44.9983014,17.1496164 L43.2003562,17.1496164 L43.2003562,30.7861918 C43.2003562,37.3638904 39.6134795,43.407863 33.8383836,46.5569041 L27.917726,49.7861096 L21.9970685,46.5569041 C19.4638356,45.1751233 17.3358356,43.2226027 15.7365753,40.8600548 C15.9874247,41.0173151 16.2121918,41.2169589 16.3821096,41.4714521 C17.1120274,42.5663288 18.333863,43.2199178 19.649863,43.2199178 L32.8953973,43.2199178 C35.6039178,43.2199178 37.8065205,41.0165479 37.8065205,38.3087945 L37.8065205,28.3536438 C37.8065205,25.6458904 35.6041096,23.4425205 32.8953973,23.4425205 L26.3050411,23.4425205 C25.7072603,23.4425205 25.2209041,22.9561644 25.2209041,22.3583836 L25.2209041,16.700274 C25.2209041,14.469863 23.4058904,12.6548493 21.1754795,12.6548493 C18.9450685,12.6548493 17.1300548,14.469863 17.1300548,16.700274 L17.1300548,21.3317808 C17.1300548,23.3815342 15.5398082,25.0481096 13.5305205,25.2090137 C13.5215068,24.4278904 13.1753425,23.7319178 12.6350959,23.2447945 L12.6350959,8.95558904 C17.8563288,8.63473973 22.9922192,7.56767123 27.9175342,5.77854795 C32.8430411,7.56747945 37.9779726,8.63454795 43.1999726,8.95558904 L43.1999726,9.9580274 L44.9979178,9.9580274 L44.9979178,7.24490411 L44.140274,7.20539726 C38.6979178,6.95646575 33.3445479,5.87041096 28.2293699,3.97810959 L27.9173425,3.86208219 L27.6053151,3.97715068 C22.4891781,5.86945205 17.1358082,6.95550685 11.694411,7.20443836 L10.8367671,7.24490411 L10.8367671,22.5436438 L9.03882192,22.5436438 L9.03882192,5.46306849 L9.24460274,5.46306849 C15.666,5.46306849 21.9452877,4.27632877 27.9171507,1.93545205 C33.8890137,4.27632877 40.1683014,5.46306849 46.5896986,5.46306849 L46.7954795,5.46306849 L46.7954795,30.7852329 L46.795863,30.7852329 Z" id="Shape" fill="#2B3B46"></path>
                        <rect id="Rectangle-path" fill="#333333" x="43.1999726" y="13.553726" width="1.79794521" height="1.79794521"></rect>
                        <rect id="Rectangle-path" fill="#333333" x="3.64517808" y="37.8260822" width="6.29271233" height="1.79794521"></rect>
                    </g>
                    <rect id="Rectangle" x="0" y="0" width="56" height="56"></rect>
                </g>
            </g>
        </g>
    </g>
</svg>