<?xml version="1.0" encoding="UTF-8"?>
<svg width="24px" height="32px" viewBox="0 0 24 32" version="1.1" xmlns="http://www.w3.org/2000/svg" xmlns:xlink="http://www.w3.org/1999/xlink">
    <!-- Generator: Sketch 45 (43475) - http://www.bohemiancoding.com/sketch -->
    <title>verified</title>
    <desc>Created with Sketch.</desc>
    <defs></defs>
    <g id="Page-1" stroke="none" stroke-width="1" fill="none" fill-rule="evenodd">
        <g id="upload-files" transform="translate(-40.000000, -624.000000)">
            <g id="nav-bar">
                <g id="verified" transform="translate(36.000000, 624.000000)">
                    <g id="document" transform="translate(4.000000, 0.000000)" fill-rule="nonzero" fill="#000000">
                        <path d="M22.559151,24 L21.0592,24 L21.0592,0.499983673 C21.0592,0.223869388 20.8353306,0 20.5592163,0 L0.55915102,0 C0.283036735,0 0.0591673469,0.223869388 0.0591673469,0.499983673 L0.0591673469,30.4999184 C0.0591673469,31.3270204 0.732081633,31.9999347 1.55911837,31.9999347 L21.5591184,31.9999347 C22.3861551,31.9999347 23.0590694,31.3270204 23.0590694,30.4999184 L23.0590694,24.4999184 C23.0591347,24.2238694 22.8352653,24 22.559151,24 Z M1.55911837,30.9999673 L1.55911837,30.9999673 C1.28339592,30.9999673 1.05913469,30.7756408 1.05913469,30.4999837 L1.05913469,1.00003265 L20.059102,1.00003265 L20.059102,30.4999837 C20.059102,30.6752 20.0893388,30.8435592 20.1447837,30.9999673 L1.55911837,30.9999673 Z M22.0591673,30.4999837 C22.0591673,30.7757061 21.8349061,30.9999673 21.5591837,30.9999673 C21.2835265,30.9999673 21.0592,30.7756408 21.0592,30.4999837 L21.0592,24.9999673 L22.0591673,24.9999673 L22.0591673,30.4999837 Z" id="Shape"></path>
                        <path d="M17.0592,5.50001633 L8.55915102,5.50001633 C8.28303673,5.50001633 8.05916735,5.72388571 8.05916735,6 C8.05916735,6.27611429 8.28303673,6.49998367 8.55915102,6.49998367 L17.0591347,6.49998367 C17.335249,6.49998367 17.5591184,6.27611429 17.5591184,6 C17.5591837,5.72388571 17.3353143,5.50001633 17.0592,5.50001633 Z" id="Shape"></path>
                        <path d="M17.0592,10.4999837 L8.55915102,10.4999837 C8.28303673,10.4999837 8.05916735,10.7238531 8.05916735,10.9999673 C8.05916735,11.2760816 8.28303673,11.499951 8.55915102,11.499951 L17.0591347,11.499951 C17.335249,11.499951 17.5591184,11.2760816 17.5591184,10.9999673 C17.5591184,10.7238531 17.3353143,10.4999837 17.0592,10.4999837 Z" id="Shape"></path>
                        <path d="M6.70569796,3.64643265 L4.55915102,5.79284898 L3.91281633,5.14644898 C3.71755102,4.95124898 3.40094694,4.95111837 3.20568163,5.14644898 C3.01035102,5.34171429 3.01035102,5.65825306 3.20561633,5.85358367 L4.20558367,6.85355102 C4.29936327,6.94733061 4.42657959,7.00003265 4.55915102,7.00003265 C4.69172245,7.00003265 4.81893878,6.94733061 4.91265306,6.85355102 L7.41270204,4.35356735 C7.60803265,4.15830204 7.60803265,3.84169796 7.41276735,3.64643265 C7.21750204,3.45123265 6.90083265,3.45116735 6.70569796,3.64643265 Z" id="Shape"></path>
                        <path d="M6.70569796,8.64646531 L4.55915102,10.7928816 L3.91281633,10.1464163 C3.71755102,9.95121633 3.40094694,9.95108571 3.20568163,10.1464163 C3.01035102,10.3416816 3.01035102,10.6582204 3.20561633,10.853551 L4.20558367,11.8535184 C4.29936327,11.947298 4.42657959,12 4.55915102,12 C4.69172245,12 4.81893878,11.947298 4.91265306,11.8535184 L7.41270204,9.35353469 C7.60803265,9.15826939 7.60803265,8.84166531 7.41276735,8.6464 C7.21750204,8.45126531 6.90083265,8.4512 6.70569796,8.64646531 Z" id="Shape"></path>
                        <path d="M17.0592,15.5000163 L8.55915102,15.5000163 C8.28303673,15.5000163 8.05916735,15.7238857 8.05916735,16 C8.05916735,16.2761143 8.28303673,16.4999837 8.55915102,16.4999837 L17.0591347,16.4999837 C17.335249,16.4999837 17.5591184,16.2761143 17.5591184,16 C17.5591184,15.7238857 17.3353143,15.5000163 17.0592,15.5000163 Z" id="Shape"></path>
                        <path d="M17.0592,20.4999837 L8.55915102,20.4999837 C8.28303673,20.4999837 8.05916735,20.7238531 8.05916735,20.9999673 C8.05916735,21.2760816 8.28303673,21.499951 8.55915102,21.499951 L17.0591347,21.499951 C17.335249,21.499951 17.5591184,21.2760816 17.5591184,20.9999673 C17.5591837,20.7238531 17.3353143,20.4999837 17.0592,20.4999837 Z" id="Shape"></path>
                        <path d="M6.70569796,13.6464327 L4.55915102,15.7929143 L3.91281633,15.146449 C3.71755102,14.951249 3.40094694,14.9511184 3.20568163,15.146449 C3.01035102,15.3417143 3.01035102,15.6582531 3.20561633,15.8535837 L4.20558367,16.8536163 C4.29936327,16.9473959 4.42657959,17.000098 4.55915102,17.000098 C4.69172245,17.000098 4.81893878,16.9473959 4.91265306,16.8536163 L7.41270204,14.3536327 C7.60803265,14.1583673 7.60803265,13.8417633 7.41276735,13.646498 C7.21750204,13.4512327 6.90083265,13.4511673 6.70569796,13.6464327 Z" id="Shape"></path>
                        <path d="M6.70569796,18.6464653 L4.55915102,20.7928816 L3.91281633,20.1464816 C3.71755102,19.9512816 3.40094694,19.9512163 3.20568163,20.1464816 C3.01035102,20.3417469 3.01035102,20.6582857 3.20561633,20.853551 L4.20558367,21.8535184 C4.29936327,21.947298 4.42657959,22 4.55915102,22 C4.69172245,22 4.81893878,21.947298 4.91265306,21.8535184 L7.41270204,19.3535347 C7.60803265,19.1582694 7.60803265,18.8416653 7.41276735,18.6464653 C7.21750204,18.4512 6.90083265,18.4511347 6.70569796,18.6464653 Z" id="Shape"></path>
                        <path d="M17.0592,25.499951 L8.55915102,25.499951 C8.28303673,25.499951 8.05916735,25.7238204 8.05916735,25.9999347 C8.05916735,26.276049 8.28303673,26.4999184 8.55915102,26.4999184 L17.0591347,26.4999184 C17.335249,26.4999184 17.5591184,26.276049 17.5591184,25.9999347 C17.5591837,25.7238204 17.3353143,25.499951 17.0592,25.499951 Z" id="Shape"></path>
                        <path d="M6.70569796,23.6464327 L4.55915102,25.792849 L3.91281633,25.1463837 C3.71755102,24.9511837 3.40094694,24.9511184 3.20568163,25.1463837 C3.01035102,25.341649 3.01035102,25.6581878 3.20561633,25.8535184 L4.20558367,26.8534857 C4.29936327,26.9472653 4.42657959,26.9999673 4.55915102,26.9999673 C4.69172245,26.9999673 4.81893878,26.9472653 4.91265306,26.8534857 L7.41270204,24.353502 C7.60803265,24.1582367 7.60803265,23.8416327 7.41276735,23.6463673 C7.21750204,23.4512327 6.90083265,23.4511673 6.70569796,23.6464327 Z" id="Shape"></path>
                    </g>
                    <rect id="Rectangle-4" x="0" y="0" width="32" height="32"></rect>
                </g>
            </g>
        </g>
    </g>
</svg>