<?xml version="1.0" encoding="UTF-8"?>
<svg width="29px" height="40px" viewBox="0 0 29 40" version="1.1" xmlns="http://www.w3.org/2000/svg" xmlns:xlink="http://www.w3.org/1999/xlink">
    <!-- Generator: Sketch 45 (43475) - http://www.bohemiancoding.com/sketch -->
    <title>good</title>
    <desc>Created with Sketch.</desc>
    <defs></defs>
    <g id="Page-1" stroke="none" stroke-width="1" fill="none" fill-rule="evenodd">
        <g id="form-process1" transform="translate(-706.000000, -1140.000000)" fill-rule="nonzero" fill="#3CAFCA">
            <g id="form" transform="translate(256.000000, 744.000000)">
                <g id="yes-copy" transform="translate(424.000000, 376.000000)">
                    <g id="Group">
                        <g id="good" transform="translate(26.250000, 20.000000)">
                            <path d="M28.0376834,22.5093436 C28.0376834,20.7014672 26.9978378,19.132973 25.4854054,18.3674131 C26.2234749,17.4881853 26.6054054,16.3842471 26.5640154,15.2228571 C26.4764479,12.7569112 24.3578378,10.7507336 21.84139,10.7507336 L18.2074131,10.7507336 L18.2074131,4.99444015 C18.2074131,2.24046332 15.9669498,0 13.212973,0 C10.4589961,0 8.21853282,2.24046332 8.21853282,4.99444015 L8.21853282,11.0644015 C3.58131274,12.2146718 0.133127413,16.4106564 0.133127413,21.39861 L0.133127413,29.2603861 C0.133127413,35.1317375 4.90980695,39.9082625 10.7810039,39.9082625 L20.3226255,39.9082625 C22.4718147,39.9082625 24.2140541,38.2566795 24.289112,36.1481081 C24.3190734,35.3037838 24.0827799,34.4955985 23.6172973,33.8142085 C25.1779151,33.0659459 26.2582239,31.4705792 26.2582239,29.6274903 C26.2582239,28.544556 25.8843243,27.5481081 25.2603861,26.7576834 C26.8937452,26.0387645 28.0376834,24.4055598 28.0376834,22.5093436 Z M10.380695,4.99444015 C10.380695,3.43274131 11.6512741,2.16216216 13.212973,2.16216216 C14.7746718,2.16216216 16.045251,3.43274131 16.045251,4.99444015 L16.045251,10.7507336 L10.7811583,10.7507336 C10.6469498,10.7507336 10.5138224,10.7559846 10.3808494,10.7609266 L10.3808494,4.99444015 L10.380695,4.99444015 Z M23.397529,24.9873359 L21.6179151,24.9873359 L13.5742085,24.9873359 C12.9771429,24.9873359 12.4931274,25.4713514 12.4931274,26.068417 C12.4931274,26.6654826 12.9771429,27.1494981 13.5742085,27.1494981 L21.6179151,27.1494981 C22.9844015,27.1494981 24.0960618,28.2611583 24.0960618,29.6276448 C24.0960618,30.9941313 22.9844015,32.1056371 21.6179151,32.1056371 L13.5742085,32.1056371 C12.9771429,32.1056371 12.4931274,32.5896525 12.4931274,33.1867181 C12.4931274,33.7837838 12.9771429,34.2677992 13.5742085,34.2677992 L20.3902703,34.2677992 C20.8664093,34.2677992 21.3110425,34.4566795 21.6418533,34.7993822 C21.9725097,35.1419305 22.1451737,35.593668 22.1281853,36.0711969 C22.0952896,36.9945946 21.285251,37.7459459 20.3226255,37.7459459 L10.7810039,37.7459459 C6.1019305,37.7459459 2.29528958,33.939305 2.29528958,29.2602317 L2.29528958,21.3984556 C2.29528958,16.7193822 6.1019305,12.9127413 10.7810039,12.9127413 L21.84139,12.9127413 C23.2071042,12.9127413 24.3564479,13.9834749 24.4030888,15.2994595 C24.4273359,15.9797683 24.1811583,16.623166 23.7101158,17.1113514 C23.23861,17.5998456 22.605251,17.8688803 21.9266409,17.8688803 L13.5740541,17.8688803 C12.9769884,17.8688803 12.492973,18.3528958 12.492973,18.9499614 C12.492973,19.547027 12.9769884,20.0310425 13.5740541,20.0310425 L23.3972201,20.0310425 C24.7637066,20.0310425 25.8752124,21.1427027 25.8752124,22.5090347 C25.8752124,23.8753668 24.763861,24.9873359 23.397529,24.9873359 Z" id="Shape"></path>
                        </g>
                    </g>
                </g>
            </g>
        </g>
    </g>
</svg>